<svg xmlns="http://www.w3.org/2000/svg" width="381" height="354"><path fill="#ebddcc" d="M193 17c1.27.02 2.54.04 3.86.05 9.55.35 18.17 2.54 27.24 5.36 1.54.48 3.08.93 4.62 1.38 6.45 1.95 12.33 5.1 18.28 8.21v2l6 2v2h3v2c.72.23 1.44.45 2.19.69 5.53 2.58 9 7.7 12.81 12.31 1.52 1.57 3.05 3.05 4.69 4.5C277 59 277 59 277 62l3 1 1 5h2c3.51 6.53 6.03 12.86 8 20l1.06 3.06c3.26 10.2 4.1 20.29 4.06 30.94.01 1.05.01 2.11.02 3.2-.01 6.81-.32 13.2-2.14 19.8-.11.42-.11.42-.65 2.55-1.41 5.38-3.05 10.37-5.35 15.45-1.03 2.66-2.02 5.33-3 8h-2c-.18.59-.36 1.18-.55 1.79-2.71 8.51-2.71 8.51-5.45 12.21h-2v3h-2v3h-2v3h-2c-.06.38-.06.38-.38 2.31C268 199 268 199 266 202h-2c-.08.66-.16 1.32-.25 2-.75 3-.75 3-2.56 6.44-5.05 10.02-6.55 19.34-6.57 30.44v2.95c.09 5.74.79 10.66 2.38 16.17.34 1.34.67 2.69 1 4.04.16.66.33 1.32.5 2.01.33 1.34.67 2.69 1 4.04 1.08 4.33 2.25 8.62 3.5 12.91l2.09-.06c8.47-.13 16.7.66 25.1 1.75.69.09 1.38.17 2.1.27 59.03 7.57 59.03 7.57 72.1 21.6C366 309 366 309 366.06 311.5c-1.84 4.34-4.92 6.89-9.03 9.09-29.32 11.19-61.78 13.66-92.84 16.1l-2.33.18c-23.43 1.83-46.87 2.34-70.36 2.32h-3.73C44.94 339 44.94 339 17.23 315.5 16 314 16 314 15.38 311.19c.79-4.07 2.18-5.3 5.41-7.76C52.73 282.72 105.12 280.4 142 281c-.37-2.63-.77-5.25-1.19-7.88-.1-.74-.2-1.49-.3-2.26-.37-2.16-.37-2.16-1.51-5.86-5.5-3.67-15.11-3.61-21.48-2.61-1.85.5-3.69 1.05-5.52 1.61-2 .04-4 .05-6 0l-1 1c-10.74.06-19.74.03-27.88-7.75-4.42-6.76-4.19-11.93-3.29-19.64.3-4.64-.9-8.22-3.45-12.05-1.47-2.72-1.48-3.59-1.32-6.56.17-3.37.14-3.75-2.12-6.56C65 210 65 210 65.12 206.5c.88-3.5.88-3.5 2-6.19 1.04-2.74 1.07-3.65-.12-6.31-2.36-1.2-2.36-1.2-5.31-2.12-9.06-2.93-9.06-2.93-11.69-6.88-.5-5.25.34-8.46 3-13h2c.27-.91.54-1.81.81-2.75 1.09-2.98 2.05-4.94 4.19-7.25h2v-3h2c.14-.46.14-.46.88-2.81C66 153 66 153 68 150h2c.69-1.66 1.35-3.33 2-5 .26-.67.53-1.33.8-2.02 3.08-8.32 2.71-14.52.2-22.98-.65-8.51 1.6-16.9 4-25 .3-1.5.59-3 .88-4.5.96-4.48 2.74-7.6 5.12-11.5.45-1.11.91-2.23 1.38-3.38C89.26 64.73 97.56 55.3 106 47l2.56-2.75c2.42-2.23 3.38-2.59 6.44-3.25.16-.49.16-.49 1-3 4.97-3.96 12.55-9 19-9l1-2c2.26-1.1 4.48-2.08 6.81-3 .68-.27 1.36-.54 2.06-.82 5.97-2.28 11.8-3.37 18.13-4.18 1.88-.37 3.75-.75 5.62-1.12 8.11-1.35 16.2-1.09 24.38-.88"/><path fill="#313332" d="M223 50c5.24 2.43 9.4 6.8 12 12 .68 5.76.81 10.49-2.56 15.38-.48.58-.95 1.17-1.44 1.77-1.43 2.65-.8 3.98 0 6.85.97 1.9 2.02 3.77 3.12 5.6.63 1.05 1.25 2.09 1.9 3.18.32.54.32.54 1.98 3.28 1.3 2.16 2.59 4.31 3.88 6.48.57.95 1.14 1.9 1.74 2.88 1.21 2.26 1.92 4.08 2.38 6.58.8-.05 1.59-.09 2.41-.14 8.67-.3 8.67-.3 13.15 1.83 4.27 4.05 5.64 6.81 6 12.69-.13 5.07-1.3 7.79-4.92 11.32-4.65 3.7-8.91 3.66-14.64 3.3-2.5-1-2.5-1-4-2-.21.66-.42 1.32-.63 2-1.89 4.13-4.54 7.48-7.31 11.06-.54.71-1.07 1.42-1.63 2.15-2.08 2.73-4.16 5.45-6.32 8.12-1.11 1.67-1.11 1.67-.86 4.36C228 171 228 171 229 172c.57 4.94.51 8.91-1.62 13.44-2.63 2.83-4.79 4.18-8.38 5.56h-3c.01.65.02 1.31.04 1.98.09 9.46-.47 18.84-1.04 28.27-.1 1.63-.19 3.26-.29 4.89-.23 3.96-.47 7.91-.71 11.86.78.28 1.55.55 2.36.84 3.77 1.66 4.83 3.48 6.64 7.16.87 4.09.92 7.44-1.25 11.1-2.95 3.58-5.02 5.48-9.77 6.21-4.64.27-7.34-.09-10.98-3.12-2.7-2.53-3.84-4.5-4.2-8.28-.01-.37-.01-.37-.05-2.29-.03-.75-.05-1.5-.08-2.27.42-2.97 1.75-4.83 3.33-7.35-.41-.64-.82-1.28-1.24-1.94-1.86-2.92-3.71-5.83-5.57-8.75-.65-1-1.29-2.01-1.95-3.05-.62-.98-1.24-1.95-1.88-2.96-.58-.89-1.15-1.79-1.73-2.71-1.12-1.77-2.19-3.58-3.21-5.4-.24-.36-.24-.36-1.42-2.19-2.05-.35-2.05-.35-4.31-.06-4.72.27-7.06-.75-10.69-3.94-2.81-3.58-2.21-7.65-2-12l1-2c-.7-.25-1.4-.5-2.12-.76-3.26-1.4-6-3.15-8.95-5.12-.28-.18-.28-.18-1.71-1.13-1.78-1.18-3.56-2.36-5.34-3.55-1.79-1.19-3.58-2.38-5.38-3.57-1.62-1.07-3.23-2.15-4.85-3.23C136 176 136 176 133 175c-2 1.38-2 1.38-4 3-4.45 1.48-8.72 2.11-13.01.02-3.36-2.29-5.5-4.16-6.99-8.02-.73-4.58-1.04-9.07 1.2-13.24 2.74-3.34 4.57-4.82 8.8-5.76-.04-.59-.04-.59-.22-3.55-.51-8.49-.95-16.94-.78-25.45-.78-.11-1.55-.22-2.36-.33-2.64-.67-2.64-.67-4.95-3.36-1.86-3.64-2.44-5.3-1.69-9.31 2.43-4.22 2.43-4.22 5-6 2.23-.38 2.23-.38 4.73-.59 5.64-1.01 7.75-3.53 10.98-8.1.28-.43.28-.43 1.73-2.62.59-.86 1.19-1.71 1.81-2.59 1.62-2.35 3.21-4.7 4.75-7.1.57-.88 1.15-1.76 1.74-2.66.41-.77.83-1.54 1.26-2.34-.79-2.01-.79-2.01-2-4-.64-4.09-.96-8.23 1.05-11.95 2.48-3.03 4.43-4.88 8.34-5.32 8.68-.31 8.68-.31 12.23 2.46 2.45 2.9 2.83 4.19 3.38 7.81.63-.04.63-.04 3.85-.22 10.4-.57 20.73-.92 31.15-.78l.36-2.8c.99-4.97 3.87-7.91 7.91-10.85 4.99-2.47 10.3-1.96 15.73-1.35"/><path fill="#ecdfcf" d="M163 133c4.75 1.88 4.75 1.88 7 3 4.19.16 7.91-.11 12-1 6.96 8.37 13.27 17.19 19.59 26.05a77 77 0 0 0 3.14 4.05c.42.63.84 1.25 1.27 1.9-.79 2.41-.79 2.41-2 5-.61 4.39-1 8.94.98 13.01 2.36 3 4.35 4.28 8.02 4.99.69 15.74-1.34 31.37-3 47-1.16.16-1.16.16-7 1-.22-.34-.22-.34-1.35-2.06-2-3.09-4.01-6.17-6.03-9.25-.69-1.07-1.39-2.15-2.11-3.25l-2.03-3.12c-.62-.94-1.24-1.89-1.88-2.87-1.19-1.82-2.39-3.64-3.6-5.45.36-2.84 1.09-5.28 2-8 .38-4.1.45-6.28-1.75-9.81-3.16-3.07-4.9-4.08-9.31-4.44C174 190 174 190 171 192c-5.02-.25-8.74-2.25-12.93-4.83-.63-.39-1.27-.79-1.92-1.19-1.34-.83-2.67-1.67-3.99-2.51-1.36-.86-2.72-1.69-4.1-2.5-11.49-6.79-11.49-6.79-12.9-12.18.02-3.02.38-5.81.84-8.79l-1-3c7.45-6.96 15.02-13.64 23-20 .93-.74 1.86-1.49 2.82-2.25.72-.58 1.44-1.16 2.18-1.75"/><path fill="#242526" d="M193 17c1.27.02 2.54.04 3.86.05 9.55.35 18.17 2.54 27.24 5.36 1.54.48 3.08.93 4.62 1.38 6.45 1.95 12.33 5.1 18.28 8.21v2l6 2v2h3v2c.72.23 1.44.45 2.19.69 5.53 2.58 9 7.7 12.81 12.31 1.52 1.57 3.05 3.05 4.69 4.5C277 59 277 59 277 62l3 1 1 5h2c3.51 6.53 6.03 12.86 8 20l1.06 3.06c3.26 10.2 4.1 20.29 4.06 30.94.01 1.05.01 2.11.02 3.2-.01 6.81-.32 13.2-2.14 19.8-.11.42-.11.42-.65 2.55-1.41 5.38-3.05 10.37-5.35 15.45-1.03 2.66-2.02 5.33-3 8h-2c-.18.59-.36 1.18-.55 1.79-2.71 8.51-2.71 8.51-5.45 12.21h-2v3h-2v3h-2v3h-2c-.06.38-.06.38-.38 2.31C268 199 268 199 266 202h-2c-.08.66-.16 1.32-.25 2-.75 3-.75 3-2.56 6.44-5.05 10.02-6.55 19.34-6.57 30.44v2.95c.09 5.74.79 10.66 2.38 16.17.34 1.34.67 2.69 1 4.04.16.66.33 1.32.5 2.01.33 1.34.67 2.69 1 4.04 1.08 4.33 2.25 8.62 3.5 12.91h2c-.19.58-.38 1.15-.58 1.75-.49 2.62-.13 3.79.83 6.25q.42 1.11.84 2.25c.3.76.6 1.53.91 2.31.59 1.52 1.18 3.04 1.75 4.57.26.67.53 1.34.8 2.03C270 304 270 304 269 307c-1.85-.6-1.85-.6-4-2-1.32-2.81-1.32-2.81-2.47-6.37-.21-.64-.42-1.28-.64-1.93a626 626 0 0 1-1.95-6.14c-.44-1.34-.88-2.68-1.32-4.03-8.54-26.27-14.72-54.71-1.64-80.53 3.96-7.45 8.6-14.4 13.35-21.35 16.7-24.84 23.86-54.05 18.94-83.81C285.86 84.05 278.03 68.98 267 56c-.79-.99-1.58-1.97-2.39-2.99C249.53 35.64 224.38 25.79 202 23c-4.63-.26-9.24-.28-13.88-.25-1.17-.01-2.35-.02-3.56-.02-29.66.06-57.12 10.86-78.37 31.52-15.67 15.88-27.38 39.88-27.31 62.44-.01.93-.01 1.86-.01 2.82C79 122 79 122 80 125c2.32 19.37-10.32 33.23-21.14 47.9-.55.78-1.1 1.55-1.67 2.35-.46.62-.92 1.25-1.4 1.89-1.12 2.64-.71 4.18.21 6.86 4.53 3.3 8.7 4.61 14.18 5.61C72 190 72 190 73 191c.23 4.36.15 7.48-1.06 11.69-.96 3.38-1.24 5.06.06 8.31 2.05 1.14 2.05 1.14 4 2q-.18.99-.36 2.01c-.13.88-.26 1.77-.39 2.68-.14.87-.28 1.74-.42 2.63.17 2.68.17 2.68 2.15 4.86 3.46 4.83 2.18 10.35 1.86 16.07-.2 5.83.11 9.17 4.16 13.75 5.47 5.07 13.07 4.51 20.05 4.27 3.24-.22 6.22-.6 9.39-1.27 4.81-1.01 9.47-1.29 14.37-1.38.36-.01.36-.01 2.18-.07 5.17-.02 8.05 1.18 12.01 4.45 7.89 10.96 7.24 26.55 5.55 39.45-.44 2.2-.98 4.38-1.55 6.55h-3l1-25-2-1c-.38-2.33-.38-2.33-.56-5.25-.13-1.92-.28-3.83-.44-5.75-.07-.9-.14-1.8-.21-2.73-.79-2.27-.79-2.27-2.93-3.54-8.45-2.16-16.56-2.25-24.86.27-2 .04-4 .05-6 0l-1 1c-10.74.06-19.74.03-27.88-7.75-4.42-6.76-4.19-11.93-3.29-19.64.3-4.64-.9-8.22-3.45-12.05-1.47-2.72-1.48-3.59-1.32-6.56.17-3.37.14-3.75-2.12-6.56C65 210 65 210 65.12 206.5c.88-3.5.88-3.5 2-6.19 1.04-2.74 1.07-3.65-.12-6.31-2.36-1.2-2.36-1.2-5.31-2.12-9.06-2.93-9.06-2.93-11.69-6.88-.5-5.25.34-8.46 3-13h2c.27-.91.54-1.81.81-2.75 1.09-2.98 2.05-4.94 4.19-7.25h2v-3h2c.14-.46.14-.46.88-2.81C66 153 66 153 68 150h2c.69-1.66 1.35-3.33 2-5 .26-.67.53-1.33.8-2.02 3.08-8.32 2.71-14.52.2-22.98-.65-8.51 1.6-16.9 4-25 .3-1.5.59-3 .88-4.5.96-4.48 2.74-7.6 5.12-11.5.45-1.11.91-2.23 1.38-3.38C89.26 64.73 97.56 55.3 106 47l2.56-2.75c2.42-2.23 3.38-2.59 6.44-3.25.16-.49.16-.49 1-3 4.97-3.96 12.55-9 19-9l1-2c2.26-1.1 4.48-2.08 6.81-3 .68-.27 1.36-.54 2.06-.82 5.97-2.28 11.8-3.37 18.13-4.18 1.88-.37 3.75-.75 5.62-1.12 8.11-1.35 16.2-1.09 24.38-.88"/><path fill="#2e2f2f" d="M178 111c3.76 1.85 5.72 4.22 7.16 8.18L186 122c.92-.02 1.85-.05 2.8-.07 7.8-.11 15.38.19 23.14 1.07 9.05 1.02 17.95 1.21 27.06 1v2c-10.98 2.23-21.25 1.93-32.36 1.18-3.39-.23-6.78-.42-10.17-.61-3.15-.18-6.31-.38-9.47-.57-1.53 7.09-1.53 7.09.05 9.8.49.66.98 1.33 1.48 2.01.54.74 1.08 1.48 1.63 2.25.59.78 1.17 1.57 1.78 2.38 1.2 1.62 2.41 3.24 3.61 4.86.59.8 1.19 1.59 1.8 2.41 1.45 2.01 2.81 4.05 4.13 6.15 5.12 7.8 5.12 7.8 9.38 8.83 2.95 0 2.95 0 5.66-.37 2.51-.32 4.1-.09 6.48.68.63-.88 1.26-1.77 1.91-2.68.41-.57.82-1.15 1.24-1.74.91-1.27 1.81-2.54 2.71-3.81 2.14-3.04 4.31-6.02 6.66-8.9 5.46-6.86 5.46-6.86 5.53-10.1-.55-1.96-.55-1.96-2.05-4.77l1-1c.29-1.41.56-2.83.81-4.25.88-4.15 2.14-6.7 5.19-9.75 3.48-1.74 7.2-1.59 11-1 3.07 1.7 5.41 3.81 7 7 .51 6.1.07 9.12-4 14l-3 2-1 3c-8.57.29-8.57.29-12-2-.21.66-.42 1.32-.63 2-1.89 4.13-4.54 7.48-7.31 11.06-.54.71-1.07 1.42-1.63 2.15-2.08 2.73-4.16 5.45-6.32 8.12-1.11 1.67-1.11 1.67-.86 4.36C228 171 228 171 229 172c.57 4.94.51 8.91-1.62 13.44-2.63 2.83-4.79 4.18-8.38 5.56h-3c.01.65.02 1.31.04 1.98.09 9.46-.47 18.84-1.04 28.27-.1 1.63-.19 3.26-.29 4.89-.23 3.96-.47 7.91-.71 11.86.39.14.39.14 2.36.84 3.77 1.66 4.83 3.48 6.64 7.16.87 4.09.92 7.44-1.25 11.1-2.95 3.58-5.02 5.48-9.77 6.21-4.64.27-7.34-.09-10.98-3.12-3.35-3.15-4.17-6.03-4.38-10.57.02-3.83.22-4.43 2.82-7.56.84-.68 1.69-1.36 2.56-2.06l1-2c2.32-.41 4.66-.74 7-1l.06-1.84c.51-15.11 1.48-30.11 2.94-45.16-.77-.12-1.53-.23-2.32-.35-3.16-.77-4.76-2.07-6.73-4.64-1.93-4.09-1.56-8.62-.95-13.01.39-.79.78-1.59 1.18-2.4.82-2.6.82-2.6-.1-4.72-.53-.69-1.07-1.39-1.63-2.1-.59-.78-1.19-1.56-1.8-2.37-.65-.82-1.29-1.63-1.96-2.47-.32-.42-.32-.42-1.95-2.54-1.3-1.69-2.6-3.37-3.91-5.05-2.45-3.14-4.83-6.34-7.21-9.54-1.2-1.6-2.41-3.21-3.62-4.81q-1.125.24-2.28.48c-4.57.87-8.29 1.4-12.34-1.1-.79-.46-1.57-.91-2.38-1.38-4.33 1.17-6.92 3.51-10.12 6.56-4.73 4.43-9.58 8.51-14.67 12.53C138 155 138 155 136 158l1 2c.13 2.67.04 5.32 0 8-.33.16-.33.16-2 1l-2-1c-.21.76-.41 1.53-.62 2.31-1.85 3.62-3.61 4.31-7.38 5.69-3.09.52-4.98.64-7.68-1.05-2.91-2.36-5.1-4.13-5.56-7.94-.13-4.16-.15-6.39 2.12-10.01 3.69-3.48 6.92-3.32 11.81-3.72C128 153 128 153 130 152c.61.22 1.21.45 1.84.68 2.16.32 2.16.32 4.35-1.23.78-.77 1.57-1.54 2.37-2.33 6.01-5.69 12.24-11.46 19.24-15.9 2.2-2.22 2.2-2.22 2.69-5.89q-.045-2.04-.18-4.08c-.01-.35-.01-.35-.07-2.11-.05-1.72-.14-3.43-.24-5.14h5l1-3c4.04-2.69 7.26-2.79 12-2"/><path fill="#ebdecf" d="M149.625 79.313c3.12.6 4.8 1.05 6.95 3.42 1.4 2.69 2.4 5.41 3.43 8.27.6 1.46 1.22 2.92 1.84 4.37 5.16 12.1 5.16 12.1 5.16 14.63-1.63 1.71-3.3 3.37-5 5l-1 1c.14.96.28 1.93.42 2.92 1.15 9.84 1.15 9.84-1.72 13.91-3.53 3.7-7.59 6.72-11.73 9.71-2.86 2.11-5.52 4.41-8.23 6.71-2.7 2.24-4.4 3.63-7.74 4.75-2.23-.57-2.23-.57-4.63-1.57-.8-.31-1.59-.62-2.41-.94-1.96-1.49-1.96-1.49-2.72-3.95-.34-4.91-.55-9.8-.62-14.73-.04-1-.07-1.99-.11-3.02-.04-2.69-.02-5.15.49-7.79 2.44-2.07 2.44-2.07 5-3 2.32-3.21 2.33-6.12 2-10l-2-3c.36-5.64 5.62-10.91 8.84-15.36 1.03-1.47 1.98-3 2.92-4.53 3.06-4.72 5.04-6.78 10.86-6.8"/><path fill="#ebdfcf" d="M205 83c.67.19 1.34.39 2.04.59 2.96.41 2.96.41 6.46-.34 4.47-.9 8.32-1.39 12.5.75 5.56 6.08 9.06 13.82 12.61 21.18a96 96 0 0 0 3.81 6.97C244 115 244 115 243.5 117.06c-.5.64-.99 1.28-1.5 1.94-.27.51-.27.51-1.65 3.09-2.35 2.91-2.35 2.91-5.61 3.55-1.27-.06-2.55-.11-3.86-.17-.7-.03-1.4-.05-2.12-.07-2.26-.1-4.51-.24-6.76-.4-.74-.05-1.48-.1-2.25-.15-5.26-.36-10.5-.84-15.75-1.35a746 746 0 0 0-4.7-.43c-3.76-.35-7.53-.71-11.3-1.07l-1.44-3.81c-.13-.36-.13-.36-.81-2.15-.61-1.67-1.19-3.35-1.75-5.04.85-1.62.85-1.62 2.21-3.37.5-.65 1-1.3 1.51-1.98.55-.69 1.09-1.38 1.66-2.09 1.1-1.43 2.21-2.87 3.32-4.31.55-.71 1.11-1.42 1.68-2.16 2.33-3 4.6-6.04 6.87-9.09 1.25-1.67 2.5-3.33 3.75-5"/><path fill="#ebdfd0" d="M187 126c10.8-.28 21.48.19 32.25.94 1.27.08 2.55.17 3.86.26 11.15.81 11.15.81 14.89 1.8 1.43 1.89 1.43 1.89 2.44 4.25l1.06 2.33c.68 3.29.1 4.46-1.5 7.42-1.84 2.7-3.81 5.29-5.81 7.88l-3.15 4.11c-.5.67-1.01 1.33-1.53 2.01-2.23 2.96-4.37 5.98-6.51 9-.61-.18-1.22-.35-1.85-.53-2.15-.47-2.15-.47-4.49.03-3.41.66-5.33.6-8.66-.5-4.63-4.11-7.94-9.55-11.37-14.65-1.58-2.28-3.25-4.43-5.01-6.57-.52-.66-1.05-1.32-1.59-2-1-1.24-2.01-2.47-3.04-3.69-1.33-1.72-1.33-1.72-2.99-5.09.55-2.78 1.55-4.51 3-7"/><path fill="#ebdfcf" d="M164 69h35c4 9 4 9 3.93 11.8-1.04 2.45-2.22 4.27-3.88 6.34-.6.76-1.2 1.52-1.82 2.31-.32.39-.32.39-1.92 2.36-1.23 1.55-2.46 3.1-3.7 4.65-.61.75-1.23 1.5-1.87 2.27-1.74 2.27-1.74 2.27-3.11 4.66-1.4 2.36-2.42 3.97-4.63 5.61-4.15.37-7.94-.16-12-1-1.66-3.7-3.3-7.41-4.94-11.12-.47-1.05-.93-2.1-1.42-3.18-.45-1.02-.89-2.03-1.35-3.08-.42-.93-.83-1.87-1.26-2.83-1.1-2.97-1.76-5.63-2.03-8.79 1.88-2.56 1.88-2.56 4-5z"/><path fill="#2e2e2e" d="M123 103v2c-1.09.08-2.19.17-3.31.25-3.69.75-3.69.75-5.63 2.5-1.29 2.74-1.58 4.25-1.06 7.25 1.69 2.31 1.69 2.31 4 4 3.16.39 4.96.01 8-1l1-8h3c.44 4.5.53 6.35-2.38 9.94C124 122 124 122 122 122l1 28 5 1v3c-.66.01-1.33.03-2.01.04-4.44.24-7.32.53-11.11 2.96-2.55 4.07-2.82 7.32-1.88 12 1.79 2.87 2.98 4.49 6 6 4.41.04 7.96-.2 11.5-2.94C132 170 132 170 133 168c.5.16.5.16 3 1v3c.32.11.32.11 1.95.64 4.29 1.91 7.99 4.53 11.86 7.17 3.06 2.07 6.12 4.14 9.19 6.19.74.5 1.49.99 2.26 1.51q1.05.675 2.13 1.38c.63.41 1.26.82 1.9 1.25 1.71.86 1.71.86 4.59.74C172 190 172 190 174 189c3.89-.44 5.72-.16 9.19 1.75 4.41 3.53 4.41 3.53 5.81 6.25.4 4.49-.03 7.06-2 11 .35 5.01 3.02 8.6 5.69 12.69.91 1.42 1.81 2.84 2.72 4.26.44.69.88 1.38 1.34 2.09 2.5 3.93 4.88 7.95 7.25 11.96l-3 2-3.15-4.68c-.91-1.35-1.82-2.69-2.73-4.04-2.24-3.32-4.36-6.64-6.25-10.17-1.75-3.24-3.47-6.29-5.87-9.11-2.57-.75-4.26-.62-6.89-.21-2.11.21-2.11.21-5.55-1.54-3.06-2.69-4.4-4.11-4.7-8.21-.11-5.53-.11-5.53 1.14-8.04-.7-.25-1.4-.5-2.12-.76-3.26-1.4-6-3.15-8.95-5.12-.28-.18-.28-.18-1.71-1.13-1.78-1.18-3.56-2.36-5.34-3.55-1.79-1.19-3.58-2.38-5.38-3.57-1.62-1.07-3.23-2.15-4.85-3.23C136 176 136 176 133 175c-2 1.38-2 1.38-4 3-4.45 1.48-8.72 2.11-13.01.02-3.36-2.29-5.5-4.16-6.99-8.02-.73-4.58-1.04-9.07 1.2-13.24 2.74-3.34 4.57-4.82 8.8-5.76-.07-1.17-.14-2.34-.22-3.55-.51-8.49-.95-16.94-.78-25.45-.39-.05-.39-.05-2.36-.33-2.64-.67-2.64-.67-4.95-3.36-1.86-3.64-2.44-5.3-1.69-9.31 3.68-6.4 6.9-6.84 14-6"/><path fill="#2e2e2d" d="M223 50c5.24 2.43 9.4 6.8 12 12 .68 5.76.81 10.49-2.56 15.38-.48.58-.95 1.17-1.44 1.77-1.43 2.65-.8 3.98 0 6.85.97 1.9 2.02 3.77 3.12 5.6.63 1.05 1.25 2.09 1.9 3.18.32.54.32.54 1.98 3.28 1.3 2.16 2.59 4.31 3.88 6.48.57.95 1.14 1.9 1.74 2.88 1.21 2.26 1.92 4.08 2.38 6.58.8-.05 1.59-.09 2.41-.14 8.67-.3 8.67-.3 13.15 1.83 4.27 4.05 5.64 6.81 6 12.69-.13 5.09-1.39 7.72-4.86 11.38-1.89 1.38-3.41 1.83-5.7 2.24l-1-3c.78-.41 1.57-.82 2.38-1.25 2.83-1.89 3.67-2.54 4.62-5.75.66-6.96.66-6.96-1.88-10.94-2.85-2.77-4.54-3.27-8.43-3.44-3.53.07-4.56.3-7.63 2.32-2.62 3.89-3.39 7.47-4.06 12.06h-3v-3l-13-1v-1c4.67-1.21 9.21-1.09 14-1 .1-.93.21-1.86.31-2.81.7-3.22 1.17-4.22 3.69-6.19-1.32-4.42-3.06-8.06-5.48-11.98-.67-1.1-1.34-2.2-2.03-3.34-.7-1.14-1.41-2.29-2.11-3.43-1.4-2.26-2.79-4.53-4.17-6.8-.31-.5-.31-.5-1.86-3.02C226 86 226 86 226 84c-.5.16-.5.16-3 1-2.12.1-4.25.13-6.38.12-.56.01-.56.01-3.39.01-2.87-.12-5.44-.47-8.23-1.13-.44.61-.88 1.22-1.33 1.84-6.12 8.47-12.39 16.82-18.67 25.16.32.58.63 1.17.96 1.77 1.4 3.01 1.66 5.95 2.04 9.23h-2l-1 2c-.23-1.24-.45-2.47-.69-3.75-.77-3-1.34-4.29-3.37-6.75-4.02-2.05-7.51-2.36-11.94-1.5-2.31 1.94-2.31 1.94-4 4-2.25.75-2.25.75-4 1 1.49-4.71 1.49-4.71 4.08-6.16q.945-.42 1.92-.84c-.44-.95-.89-1.91-1.35-2.89-.57-1.26-1.14-2.53-1.71-3.8-.15-.31-.15-.31-.9-1.89-1.72-3.88-2.4-6.35-1.04-10.42 3.05 2.56 4.21 5.41 5.69 9.06.22.53.22.53 1.32 3.23.99 2.71.99 2.71.99 4.71 4.36 1.2 7.65 1.34 12 0 4.7-4.07 8.01-9.59 11.44-14.72 2.32-3.39 4.84-6.61 7.37-9.84.82-1.07 1.64-2.13 2.46-3.19.57-.75 1.14-1.49 1.73-2.25 4.75 1.88 4.75 1.88 7 3 4.92.54 8.89.5 13.44-1.56 3.62-3.45 5.44-6.63 5.65-11.72-.33-5.01-1.32-8.17-5.09-11.72-3.22-2-5.68-2.24-9.44-2.19-.92.01-1.85.02-2.81.02-2.67.16-5.14.58-7.75 1.17 3.21-7.1 10.01-5.6 17-5"/><path fill="#c67958" d="M222 53c3.91 1.95 6.99 4.08 9 8 1.31 4.78 1.49 8.74-.56 13.31-2.22 3.77-4.37 5.88-8.44 7.69-5.09.8-8.82.6-13.44-1.75-4.56-4-6.37-6.92-6.87-13.06.08-5.53 2.86-8.52 6.37-12.57 4.54-2.51 8.87-2.36 13.94-1.62"/><path fill="#323435" d="M123 103v2c-1.09.08-2.19.17-3.31.25-3.69.75-3.69.75-5.63 2.5-1.29 2.74-1.58 4.25-1.06 7.25 1.69 2.31 1.69 2.31 4 4 3.16.39 4.96.01 8-1l1-8h3c.44 4.5.53 6.35-2.38 9.94C124 122 124 122 122 122l1 28 5 1v3c-.66.01-1.33.03-2.01.04-4.44.24-7.32.53-11.11 2.96-2.55 4.07-2.82 7.32-1.88 12 1.79 2.87 2.98 4.49 6 6 4.41.04 7.96-.2 11.5-2.94C132 170 132 170 133 168c.5.16.5.16 3 1v3l2 1-6 3c-.95.56-1.9 1.11-2.88 1.69-3.81 1.6-7.08 2.15-11.12 1.31-4.27-2.11-7.26-4.5-9-9-.73-4.58-1.04-9.07 1.2-13.24 2.74-3.34 4.57-4.82 8.8-5.76-.07-1.17-.14-2.34-.22-3.55-.51-8.49-.95-16.94-.78-25.45-.39-.05-.39-.05-2.36-.33-2.64-.67-2.64-.67-4.95-3.36-1.86-3.64-2.44-5.3-1.69-9.31 3.68-6.4 6.9-6.84 14-6"/><path fill="#829283" d="M257 117c3.07 1.71 5.4 3.81 7 7 .4 4.77.47 7.08-1.75 11.38-3.2 3.73-4.75 4.45-9.63 5-4.34-.45-6.33-1.55-9.62-4.38-2.11-3.64-2.51-6.84-2-11 3.98-7.14 8.03-9.37 16-8"/><path fill="#202223" d="m102 50 2 1c-1.37 3.05-2.96 5.2-5.25 7.62C94.79 63.05 91.87 67.83 89 73c-.62 1.07-1.24 2.14-1.88 3.25C86 79 86 79 86.06 81.69c-.06 3.35-.66 5.16-1.87 8.25C80.2 100.36 76.34 114.01 80 125c.81 8.95.54 16.61-5 24-1.64 1.05-3.3 2.05-5 3-1.69 2.31-3.19 4.69-4.67 7.14-.22.3-.22.3-1.33 1.86h-2v-2h2c.29-.93.58-1.86.88-2.81C66 153 66 153 68 150h2c.69-1.66 1.35-3.33 2-5 .26-.67.53-1.33.8-2.02 3.08-8.32 2.71-14.52.2-22.98-.65-8.51 1.6-16.9 4-25 .3-1.5.59-3 .88-4.5.96-4.48 2.74-7.6 5.12-11.5.45-1.11.91-2.23 1.38-3.38 3.6-8.04 9.13-14.62 14.76-21.33C101 52 101 52 102 50"/><path fill="#d8b489" d="M173.188 110.625c3.58.02 5.54.46 8.31 2.75 3.37 3.54 3.9 5.59 3.86 10.52-.63 3.72-2.7 5.51-5.36 8.11-3.45 1.72-7.22 1.48-11 1-2.87-1.8-4.49-2.99-6-6-.42-3.39-.49-6.63 0-10 2.44-3.07 2.44-3.07 5-5 1.55-1.55 3.04-1.29 5.19-1.38"/><path fill="#929d92" d="M127 154c3.47 2.07 5.74 4.12 7 8 .51 3.91.15 5.71-1.69 9.25-3.19 3.79-5.45 4.47-10.25 5.19-4.34-.62-5.94-2.39-9.06-5.44-1.73-3.46-1.49-7.22-1-11 3.91-6.25 8-6.88 15-6"/><path fill="#3a475c" d="M215.188 166.625c5 .49 6.32 1.88 9.81 5.38 1.53 3.06 1.23 5.61 1 9-1.25 2.82-2.28 4.46-4.75 6.31-3.27 1-5.84 1.04-9.25.69-2.75-1.8-4.52-3.06-6-6-.42-3.06-.49-5.95 0-9 2.44-3 2.44-3 5-5 1-1 1-1 4.19-1.38"/><path fill="#d4c0aa" d="M214 240c2.94 2.44 2.94 2.44 5 5l1 1c.42 4.28.24 6.55-1.81 10.38-2.78 3.33-4.3 3.54-8.57 3.93-4.23-.36-5.7-1.3-8.62-4.31-1.2-3.61-1.33-6.21-1-10 3.66-5.61 7.32-7.19 14-6"/><path fill="#7e8e7f" d="M156 59c3.06 1.94 3.06 1.94 5 5 1.04 4.75.67 7.94-1.94 12.06-4.12 2.61-7.31 2.98-12.06 1.94-3.06-1.94-3.06-1.94-5-5-1.04-4.75-.67-7.94 1.94-12.06 4.12-2.61 7.31-2.98 12.06-1.94"/><path fill="#697b78" d="M177.563 191.375c3.5.9 5.09 2.96 7.44 5.62.33.34.66.66 1 1 .41 3.66.24 5.57-1.56 8.82-3.25 2.91-5.1 3.33-9.44 3.18-3.29-1.85-5.46-3.19-6.58-6.94-.26-3.07-.08-5.15 1.76-7.68 2.27-2.07 4.4-3.27 7.38-4"/><path fill="#2a2a2a" d="M74 237c2.68 2.29 3.41 3.85 3.94 7.31.99 4.91 2.38 8.78 6.64 11.82 5.96 3.29 11.22 3.35 17.92 3.12 1.01-.02 2.03-.04 3.07-.05 2.48-.05 4.95-.12 7.43-.2-1.19 2.45-1.19 2.45-3 5-7.78 2.5-18.95 1.66-26.38-1.69-4.98-2.85-8.32-6.59-10-12.12-.93-4.49-.39-8.71.38-13.19"/><path fill="#2a2b2b" d="m131 32 2 3c-.75.41-1.5.83-2.27 1.25C110.97 47.4 96.47 62.41 87 83l-2-1c.67-3.81 1.73-7.35 3-11h2c.06-.72.12-1.44.19-2.19 1.08-3.75 2.96-5.15 5.81-7.81 6.61-6.98 6.61-6.98 8-10.62 1.58-3.76 4.65-6.14 8-8.38 1.33-.35 2.66-.68 4-1l2-2c1.32-.69 2.66-1.36 4-2 1.59-.87 3.17-1.74 4.75-2.62.4-.23.4-.23 2.42-1.36.61-.33 1.21-.67 1.83-1.02"/><path fill="#374458" d="M122 105c2.38 1 2.38 1 4 3 .57 4.49.85 6.74-1.69 10.5-2.31 1.5-2.31 1.5-4.75 2.06-3.83-.84-5.28-2.41-7.56-5.56 0-3.57.32-5.88 2.19-8.94 2.73-1.6 4.7-1.44 7.81-1.06"/><path fill="#2f2f2e" d="M246 35c1.44.6 2.88 1.2 4.31 1.81.8.34 1.6.68 2.43 1.02C255 39 256.32 40.11 258 42c4.55 4.78 4.55 4.78 7.19 6.06 1.81.94 1.81.94 2.67 2.68 1.4 2.78 3.18 4.97 5.14 7.38.7.87 1.4 1.74 2.12 2.64C277 63 277 63 279 65c.17.5.17.5 1 3l2 2v3c.33.16.33.16 2 1v3l-2 2c-.21-.41-.21-.41-1.25-2.49-3.91-7.55-8.18-14.04-13.75-20.51-.77-.98-1.54-1.95-2.33-2.96-2.73-3.28-5.87-5.76-9.29-8.29-.29-.22-.29-.22-1.74-1.31-2.5-1.89-5.03-3.7-7.64-5.44z"/><path fill="#16191b" d="M163 20v2c-.96.16-1.91.32-2.89.48-8.36 1.51-15.53 3.53-23.11 7.52v3c-2.76.6-5.16 1-8 1-5.29 2.46-10.21 5.69-15 9l-2-2h3l1-3c4.97-3.96 12.55-9 19-9l1-2c2.32-1.09 4.61-2.07 7-3 .68-.27 1.36-.53 2.06-.81 12.78-4.91 12.78-4.91 17.94-3.19"/><path fill="#393a39" d="M194 122c2.42.14 4.83.29 7.25.44.73.04 1.47.09 2.22.13 4.17.26 8.31.59 12.47.99 7.67.68 15.36.52 23.06.44v2c-11.85 2.41-23.02 1.82-35 1l-4.9-.3c-3.7-.22-7.4-.45-11.1-.7v-1l10-1z"/><path fill="#121518" d="m102 50 2 1c-1.37 3.05-2.96 5.2-5.25 7.62-3.96 4.43-6.88 9.2-9.75 14.38-.62 1.09-1.24 2.19-1.88 3.31C85.95 79.11 85.74 81 86 84h-2c-1.49 3.62-2.79 7.28-4 11h-2c-.72-5.45 1.22-8.89 3.71-13.55C83 79 83 79 84.44 75.44c3.61-7.95 9.12-14.5 14.7-21.15C101 52 101 52 102 50"/><path fill="#353635" d="M210 228h1v8h2v-7h1v9l3 1-1 2-2.01-.18c-4.52-.23-7.19-.32-11.11 2.12-2.53 4.11-2.34 7.36-1.88 12.06h-2l-1 2c-1.35-4.05-1.69-7.77-1-12 2.44-2.94 2.44-2.94 5-5l1-2c2.32-.41 4.66-.74 7-1z"/><path fill="#2b2c2c" d="m73 216 2 2-.12 2.31c.12 2.69.12 2.69 2.14 4.78 2.82 4.15 2.21 7.37 1.73 12.22-.07.84-.13 1.67-.2 2.54-.16 2.05-.35 4.1-.55 6.15h-1c-.49-1.99-.98-3.97-1.46-5.96-.45-1.7-.98-3.37-1.54-5.04-.31-1.18-.62-2.35-.94-3.56C72 228 72 228 70 226c-.05-2.13-.05-2.13.25-4.56.09-.81.18-1.61.27-2.44.16-.66.32-1.32.48-2z"/><path fill="#171a1a" d="M113 259c-.81 2.44-.81 2.44-3 5-7.15 1.86-14.76.91-22 0l2-4c2.71-.17 5.42-.34 8.12-.5.77-.05 1.53-.1 2.31-.14 4.2-.26 8.36-.41 12.57-.36"/><path fill="#262627" d="M186 122c4.83-.08 9.24.05 14 1-2.5 2.5-3.67 2.36-7.12 2.62-.92.08-1.83.15-2.76.23-.35.03-.35.03-2.12.15-3.22 6.18-3.22 6.18-2.12 10.31.37.89.74 1.78 1.12 2.69l-1 2c-.62-.8-1.24-1.61-1.88-2.44C182 136 182 136 180 135c1.41-4.83 3.43-8.72 6-13"/><path fill="#222425" d="m243 119 1 2c-.14.28-.14.28-.88 1.69-1.47 3.04-1.73 5.97-2.12 9.31h-3v-3l-13-1v-1c4.67-1.21 9.21-1.09 14-1l1-6z"/><path fill="#242526" d="M110 258c6.41-.21 11.93-.16 18 2v2l-3.38-.12c-5.02-.02-9.74 1-14.62 2.12z"/><path fill="#1d1e1d" d="M66 206c.28.21.28.21 1.68 1.28.36.27.36.27 2.2 1.66.71.54 1.43 1.09 2.17 1.65C74 212 74 212 76 213v4l-4 1-1 5c-2-3-2-3-1.88-5.38C69 215 69 215 66.94 212.44c-.64-.81-1.28-1.61-1.94-2.44.38-2.15.38-2.15 1-4"/><path fill="#3e3835" d="m229 75 3 3c-.33.5-.33.5-2 3v4l-4 1v-2l-7 1v-2h-5v-1c.66-.09 1.33-.17 2.01-.26 6.01-.96 9.19-1.92 12.99-6.74"/><path fill="#3d3e3c" d="M119 141h1l1 6 2-3v6l5 1v3h-11v-3h2z"/><path fill="#161618" d="M266 49c3.44 1.15 4.59 2.73 6.79 5.51C274 56 274 56 275.81 57.69 277 59 277 59 277 62l3 1 1 5h2l2 6c-3-1-3-1-4-2.61-.33-.71-.66-1.41-1-2.14-2.74-5.28-6.41-9.49-10.34-13.91C266 51.19 266 51.19 266 49"/><path fill="#17191b" d="M74 237c2.4 1.84 2.96 2.78 3.48 5.81.05 1.05.09 2.11.14 3.19.18 3.3.33 5.85 1.38 9h-3c-2.72-6.5-3.21-11.05-2-18"/><path fill="#3b3a39" d="M264 289c2 3.01 3.03 5.59 4.19 9 .36 1.05.73 2.1 1.1 3.19C270 304 270 304 269 307c-3.75-1.44-3.75-1.44-4.86-3.92-1-5.06-1.22-9.02-.14-14.08"/><path fill="#16181b" d="M74 142c2 3 2 3 1.94 5-.94 2-.94 2-3.13 3.19-3.66 2.36-5.25 5.26-7.48 8.95-.22.3-.22.3-1.33 1.86h-2v-2h2c.29-.93.58-1.86.88-2.81C66 153 66 153 68 150h2c.29-.76.58-1.53.88-2.31C72 145 72 145 74 142"/><path fill="#2f2f2e" d="m56 172 3 1c-.68.89-1.36 1.77-2.06 2.69-1.94 3.31-1.94 3.31-1.88 6 .98 2.41 1.95 3.66 3.94 5.31h-4c-.27-.64-.54-1.28-.81-1.94C53 183 53 183 50 182c.31-.58.62-1.16.94-1.75C52 178 52 178 52.44 175.88 53 174 53 174 56 172"/><path fill="#26292a" d="m117 152 1 3c-.78.64-1.57 1.28-2.38 1.94-3.45 3.38-3.94 7.42-4.62 12.06h-2c-.91-8.4-.91-8.4 1.27-12.22 4.04-4.78 4.04-4.78 6.73-4.78"/><path fill="#3f3a35" d="M181 130c0 3 0 3-1 6-3.55 1.18-6.27 1.27-10 1-1.94-1.5-1.94-1.5-3-3 2.84-1.42 5.66-1.38 8.81-1.62C178 132 178 132 181 130"/><path fill="#3e3f3e" d="m73 216 2 2-.06 2.31c.06 2.69.06 2.69 1.68 5.13C78 228 78 228 77.19 231.31c-.39.89-.79 1.78-1.19 2.69h-1c.06-.74.12-1.49.19-2.25-.22-3.23-.97-4.45-3.19-6.75h-2c.59-6.15.59-6.15 1-8z"/><path fill="#3b3b3b" d="M127 102c2.41 4.56 3.38 7.77 3 13h-1v-5h-3c-2.19-2.5-2.19-2.5-4-5l1-2h-7v-1c7.62-1.12 7.62-1.12 11 0"/><path fill="#464542" d="M145 272h1c1.11 5.33 1.12 10.46 1.06 15.88 0 .87-.01 1.75-.01 2.66-.01 2.15-.03 4.31-.05 6.46h-1l-1-16-1 11h-1c-.37-13.63-.37-13.63 2-20"/><path fill="#161617" d="m246 32 1 2c1.98.73 3.98 1.4 6 2v2h3v2c.72.21 1.44.41 2.19.62 3.74 1.83 5.3 4.08 7.81 7.38-3.74 0-4.45-.93-7.19-3.38-.71-.62-1.43-1.25-2.17-1.89C255 41 255 41 255 39c-.56-.1-1.11-.21-1.69-.31-2.81-.84-4.93-1.97-7.31-3.69z"/><path fill="#202327" d="M123 103v2l-3.19.06c-4.63 1.14-5.49 2.53-7.86 6.44-.32.5-.63.99-.95 1.5h-1c-.31-3.42-.36-5.4 1.44-8.38 3.76-2.38 7.22-1.95 11.56-1.62"/><path fill="#343535" d="m198 87 4 1c-.93 1.27-1.87 2.54-2.81 3.81-.52.71-1.05 1.42-1.58 2.15A47 47 0 0 1 193 99c-.35-2.97-.54-5.16 1.11-7.73 1.25-1.47 2.56-2.88 3.89-4.27"/><path fill="#232528" d="m212 219 2 1c.11 5.46-.08 10.62-1 16h-2q-.045-3.69-.06-7.38l-.03-2.11c-.02-5.28-.02-5.28 1.09-7.51"/><path fill="#595853" d="m194 122 16 1v1c-5.16 1.7-9.44 2.22-14.94 2.12-.68 0-1.37-.01-2.07-.02-1.66-.03-3.33-.06-4.99-.1v-1l10-1z"/><path fill="#4c4a46" d="M210 228h1v8h2v-7h1v9l3 1-1 2-8-2 2-1z"/><path fill="#383938" d="M214 206h1c.08 1.94.14 3.87.19 5.81.03 1.08.07 2.16.1 3.27-.29 2.92-.29 2.92-1.74 4.81C212 221 212 221 211 221c-.32-5.99.32-9.64 3-15"/><path fill="#333638" d="M211 187h10l1 3-8 1-1 4v-5l-4-1h2z"/><path fill="#2e2f2f" d="m72 149 2 2-8 12c-1.27-3.8-.48-5.35 1-9z"/></svg>