<svg xmlns="http://www.w3.org/2000/svg" width="412" height="394"><path fill="#e6e4df" d="M46 125v2c1-.08 2-.17 3.03-.25l3.91-.31c1.29-.11 2.57-.21 3.9-.32L60 126c.16.17.16.17 1 1 2.73.24 5.45.42 8.19.56.38.02.38.02 2.29.13 4.18.23 8.33.36 12.52.31v2c.66-.01 1.32-.01 2-.02 2.98-.02 5.96-.03 8.94-.04l3.15-.03c.99 0 1.98 0 3-.01.46 0 .46 0 2.78-.01C106 130 106 130 107 131c2.57.24 5.11.42 7.69.56.71.05 1.41.09 2.14.13 3.23.19 6.4.31 9.63.27C129 132 129 132 130 133c1.88 0 3.76 0 5.63-.03 4.15.05 8.25.58 12.37 1.03 9.93 1 9.93 1 14.62 1H165l1 1c2.92.24 5.82.42 8.75.56.81.05 1.62.09 2.46.13 3.28.17 6.52.31 9.81.27C189 137 189 137 190 138c2.27.22 4.54.37 6.81.5 1.38.08 2.76.17 4.14.25.69.04 1.37.08 2.08.13 3.67.23 7.32.55 10.98.87 2.15.18 4.3.33 6.45.46.57.04.57.04 3.48.23l3.15.18c4.47.58 8.05 1.77 10.91 5.38v2l2 1a87 87 0 0 1 3.12 4.94c.54.89 1.08 1.79 1.64 2.71C246 159 246 159 246 161l2 1c1.07 1.62 2.05 3.31 3 5 .43.75.86 1.49 1.3 2.26 3.7 6.48 3.7 6.48 3.7 8.74l2 1c2.71 3.61 4.47 6.48 5 11h2c1.52 2.27 1.52 2.27 3.25 5.38.31.54.31.54 1.89 3.32.61 1.09 1.23 2.18 1.86 3.3 1.01 1.71 2.03 3.42 3.06 5.12l1.46 2.43c1.04 1.72 2.08 3.44 3.12 5.15.53.88 1.06 1.77 1.61 2.68.48.79.96 1.58 1.45 2.39 3.3 5.66 3.3 5.66 3.3 9.23l2 1c4.45 5.68 7.73 12.13 11.09 18.48 2.34 4.38 4.92 8.61 7.5 12.85 3.28 5.42 6.43 10.91 9.55 16.44 2.16 3.75 4.46 7.41 6.83 11.05 1.21 2.55 1.23 4.39 1.03 7.18l-3 1c-.12.62-.25 1.24-.38 1.88-.62 2.12-.62 2.12-2.45 3.72-4.79 2.11-9.37 1.85-14.55 1.85l-3.49.03c-3.8.04-7.6.05-11.4.07l-7.94.06c-5.54.04-11.08.07-16.62.1-6.4.03-12.8.07-19.19.12-6.17.05-12.34.09-18.5.13-2.62.02-5.24.03-7.85.05-3.67.03-7.33.04-10.99.06-1.08.01-2.16.02-3.27.02-5.24.02-10.21-.17-15.37-1.09.16 1.24.33 2.48.5 3.75.38 2.83.5 5.37.5 8.25.62 0 1.23.01 1.87.01 30.58.2 61.05.88 91.57 2.93 1.29.08 2.59.17 3.93.26 3.71.24 7.42.5 11.13.76 1.07.08 2.15.15 3.26.23 7.48.56 14.84 1.58 22.24 2.81v-8c2.35-1.43 3.48-2.09 6.25-1.62.58.2 1.15.41 1.75.62.31 1.11.62 2.23.94 3.38C334 321 334 321 335 323c2.06.62 2.06.62 4 1 .15-.38.15-.38.88-2.31 3.64-9.17 7.8-16.98 15.12-23.69l2-2c2.63-.12 2.63-.12 5 0 1.14 3.43 1.04 3.92-.51 7.5-.72 1.36-1.44 2.71-2.18 4.06-3.32 6.33-6.11 12.62-8.31 19.44 3.28-.59 5.01-1.62 7.44-3.88 5.35-4.73 5.35-4.73 8.56-6.12 2.31.81 2.31.81 4 2-.54 3.87-1.59 5.97-4 9 1.11.36 2.22.73 3.37 1.1 21.72 7.28 21.72 7.28 26.63 14.9.69 2.81.69 2.81 0 6-15.42 19.36-54.17 20.93-76.78 23.57-12.39 1.4-24.79 2.48-37.22 3.43-.4.03-.4.03-2.41.19-50.04 3.82-101.55 3.56-151.59-.19-.7-.05-1.4-.1-2.13-.15C36.26 370.26 36.26 370.26 18 352c-1.5-2.94-1.5-2.94-2-6 1.82-5.21 6.33-8.39 11-11 5.54-2.35 11.28-4.15 17-6 1.85-.62 3.71-1.25 5.56-1.88 1.14-.37 2.27-.74 3.44-1.12-.29-.5-.58-.99-.88-1.5-2.62-4.81-3.58-8.03-3.12-13.5 1.69-.75 1.69-.75 4-1 4.92 2.72 7.01 7.16 9.57 11.95.47.68.94 1.35 1.43 2.05h3c-.16-.82-.16-.82-1-5l2-1c.31-1.79.31-1.79.44-4.06.7-7.52 3.46-15.23 8.56-20.94 2.81-.5 2.81-.5 5 0 1.37 3.82.68 7.07 0 11h-2l1 4h-2l-.18 2.99c-.09 1.28-.17 2.56-.26 3.89-.08 1.27-.16 2.55-.24 3.86C78 322 78 322 77 324c4.9-1.4 6.9-4.08 10-8 3-2 3-2 5.69-1.62.76.2 1.52.41 2.31.62l-1 7c.59-.06.59-.06 3.58-.35 43.26-4.22 43.26-4.22 62.42-4.65l-1-13-3.42.03c-4.2.04-8.4.06-12.6.08-1.81.01-3.63.02-5.44.04-2.61.03-5.23.04-7.84.05-.4 0-.4 0-2.45.03-6.97 0-6.97 0-10.25-2.23v-2l-2-1c-1-1.78-1-1.78-2-3.94-1.18-2.55-1.99-4.05-4-6.06-.28-.85-.55-1.7-.84-2.57-1.48-4.37-3.59-8.25-5.78-12.31-.91-1.7-1.82-3.4-2.72-5.1-.45-.85-.9-1.7-1.37-2.57-4.66-8.84-9.02-17.82-13.23-26.89-3.03-6.53-6.3-12.91-9.7-19.25a491 491 0 0 1-7.42-14.43c-2.56-5.18-5.2-10.3-7.94-15.38-6.08-11.31-11.73-22.81-17.12-34.47-2.38-5.09-4.99-9.99-7.85-14.83C34 139 34 139 34 135h2l1-4h2v-3c2.32-3.13 2.83-3 7-3"/><path fill="#e4d6c5" d="M79.813 292.5c.72.17 1.44.33 2.19.5 1.37 3.82.68 7.07 0 11h-2c.16.66.16.66 1 4h-2c-.03.49-.03.49-.19 2.99-.08 1.28-.16 2.56-.25 3.89-.08 1.27-.16 2.55-.25 3.86-.31 3.26-.31 3.26-1.31 5.26 4.9-1.4 6.9-4.08 10-8 3-2 3-2 5.69-1.62.38.1.38.1 2.31.62l-1 7c1.18-.12 2.37-.23 3.6-.35 39.76-3.87 39.76-3.87 52.96-4.46.43-.02.43-.02 2.62-.13 5.54-.2 5.54-.2 7.82.94v12c-.7.01-.7.01-4.24.08-1.84.05-3.67.11-5.51.17-.92.01-1.84.03-2.79.04-6.7.25-6.7.25-10.1 2.32-1.36 2.39-1.36 2.39-1.36 9.39l76 1c0-7 0-7-1.86-9.89-4.44-2.98-8.21-2.89-13.45-2.92-.94-.03-1.87-.05-2.83-.08-2.29-.06-4.57-.09-6.86-.11v-12h2v-2c31.2.18 62.3.85 93.43 2.94 1.3.08 2.6.17 3.94.26 3.71.24 7.41.5 11.12.76 1.08.08 2.16.15 3.27.23 7.48.56 14.84 1.58 22.24 2.81v-8c2.35-1.43 3.48-2.09 6.25-1.62.29.1.29.1 1.75.62.15.56.15.56.93 3.38 1.07 3.62 1.07 3.62 2.07 5.62 2.06.62 2.06.62 4 1l.88-2.31c3.64-9.17 7.8-16.98 15.12-23.69l2-2c2.62-.12 2.62-.12 5 0 1.14 3.43 1.03 3.92-.51 7.5-.72 1.36-1.45 2.71-2.18 4.06-3.32 6.33-6.12 12.62-8.31 19.44 3.28-.59 5-1.62 7.43-3.88 5.36-4.73 5.36-4.73 8.57-6.12 2.31.81 2.31.81 4 2-.54 3.87-1.59 5.97-4 9 1.11.36 2.22.73 3.36 1.1 21.73 7.28 21.73 7.28 26.64 14.9.69 2.81.69 2.81 0 6-15.42 19.36-54.17 20.93-76.78 23.57-12.39 1.4-24.8 2.48-37.22 3.43-.8.06-1.59.12-2.41.19-50.05 3.82-101.55 3.56-151.59-.19l-2.13-.15c-90.61-6.59-90.61-6.59-108.87-24.85-1.5-2.94-1.5-2.94-2-6 1.82-5.21 6.33-8.39 11-11 5.53-2.35 11.28-4.15 17-6 1.85-.62 3.71-1.25 5.56-1.88 1.13-.37 2.27-.74 3.44-1.12-.29-.5-.58-.99-.88-1.5-2.62-4.81-3.58-8.03-3.12-13.5 1.69-.75 1.69-.75 4-1 4.91 2.72 7.01 7.16 9.57 11.95.47.68.94 1.35 1.43 2.05h3l-1-5 2-1c.31-1.79.31-1.79.43-4.06.64-6.81 3.64-20.06 11.38-21.44"/><path fill="#2e3741" d="M46 125v2c1-.08 2-.17 3.03-.25l3.91-.31c1.29-.11 2.57-.21 3.9-.32L60 126l1 1c2.73.24 5.45.42 8.19.56.38.02.38.02 2.29.13 4.18.23 8.33.36 12.52.31v2c.66-.01 1.32-.01 2-.02 2.98-.02 5.96-.03 8.94-.04.52-.01.52-.01 3.15-.03.99 0 1.98 0 3-.01.46 0 .46 0 2.78-.01C106 130 106 130 107 131c2.57.24 5.11.42 7.69.56.71.05 1.41.09 2.14.13 3.23.19 6.4.31 9.63.27C129 132 129 132 130 133c1.88 0 3.76 0 5.63-.03 4.15.05 8.25.58 12.37 1.03 9.93 1 9.93 1 14.62 1H165l1 1c2.92.24 5.82.42 8.75.56.81.05 1.62.09 2.46.13 3.28.17 6.52.31 9.81.27C189 137 189 137 190 138c2.27.22 4.54.37 6.81.5 1.38.08 2.76.17 4.14.25.69.04 1.37.08 2.08.13 3.67.23 7.32.55 10.98.87 2.15.18 4.3.33 6.45.46.57.04.57.04 3.48.23l3.15.18c4.47.58 8.05 1.77 10.91 5.38v2l2 1a87 87 0 0 1 3.12 4.94c.54.89 1.08 1.79 1.64 2.71C246 159 246 159 246 161l2 1c1.07 1.62 2.05 3.31 3 5 .43.75.86 1.49 1.3 2.26 3.7 6.48 3.7 6.48 3.7 8.74l2 1c2.71 3.61 4.47 6.48 5 11h2c1.52 2.27 1.52 2.27 3.25 5.38.31.54.31.54 1.89 3.32.61 1.09 1.23 2.18 1.86 3.3 1.01 1.71 2.03 3.42 3.06 5.12.48.8.96 1.6 1.46 2.43 1.04 1.72 2.08 3.44 3.12 5.15.26.44.26.44 1.61 2.68.48.79.96 1.58 1.45 2.39 3.3 5.66 3.3 5.66 3.3 9.23l2 1c4.45 5.68 7.73 12.13 11.09 18.48 2.34 4.38 4.92 8.61 7.5 12.85 3.28 5.42 6.43 10.91 9.55 16.44 2.16 3.75 4.46 7.41 6.83 11.05 1.21 2.55 1.23 4.39 1.03 7.18l-3 1c-.12.62-.25 1.24-.38 1.88-.62 2.12-.62 2.12-2.45 3.72-4.79 2.11-9.37 1.85-14.55 1.85l-3.49.03c-3.8.04-7.6.05-11.4.07l-7.94.06c-5.54.04-11.08.07-16.62.1-6.4.03-12.8.07-19.19.12-6.17.05-12.34.09-18.5.13-2.62.02-5.24.03-7.85.05-3.67.03-7.33.04-10.99.06-1.08.01-2.16.02-3.27.02-5.24.02-10.21-.17-15.37-1.09.16 1.2.33 2.39.5 3.62.44 3.49.59 6.87.5 10.38h-2v12c1.39-.05 2.77-.09 4.2-.14 1.83-.04 3.66-.07 5.49-.11.91-.03 1.82-.07 2.76-.1 4.3-.06 6.85-.05 10.64 2.14 2.58 2.99 2.77 5.32 2.91 9.21l-1 2c-9.89.02-19.78.04-29.68.05-4.59.01-9.18.01-13.77.03-4.43.01-8.86.01-13.29.01-1.69.01-3.39.01-5.08.02h-7.09c-.71.01-1.41.01-2.14.01-4.84-.01-4.84-.01-5.95-1.12-.48-4.12-.51-6.26 1.88-9.71 4.46-3.27 8.06-2.85 13.43-2.6.47.01.47.01 2.82.07 2.29.05 4.58.14 6.87.24-.14-1.79-.29-3.58-.44-5.38-.08-.99-.16-1.99-.24-3.02C160 319 160 319 159 317c-.07-2.21-.08-4.42-.06-6.62.01-1.19.02-2.38.02-3.61.02-.91.03-1.83.04-2.77l-3.42.03c-4.2.04-8.4.06-12.6.08-1.81.01-3.63.02-5.44.04-2.61.03-5.23.04-7.84.05-.4 0-.4 0-2.45.03-6.97 0-6.97 0-10.25-2.23v-2l-2-1c-1-1.78-1-1.78-2-3.94-1.18-2.55-1.99-4.05-4-6.06-.28-.85-.55-1.7-.84-2.57-1.48-4.37-3.59-8.25-5.78-12.31-.91-1.7-1.82-3.4-2.72-5.1-.45-.85-.9-1.7-1.37-2.57-4.66-8.84-9.02-17.82-13.23-26.89-3.03-6.53-6.3-12.91-9.7-19.25a491 491 0 0 1-7.42-14.43c-2.56-5.18-5.2-10.3-7.94-15.38-6.08-11.31-11.73-22.81-17.12-34.47-2.38-5.09-4.99-9.99-7.85-14.83C34 139 34 139 34 135h2l1-4h2v-3c2.32-3.13 2.83-3 7-3m0 7c5.66 12.39 11.77 24.52 18 36.62.38.74.75 1.47 1.14 2.22 3.72 7.22 7.47 14.43 11.28 21.61 4.25 7.97 8.36 16.01 12.37 24.1 4.25 8.57 8.53 17.13 12.8 25.68 1.19 2.38 2.37 4.76 3.56 7.14 1.75 3.51 3.5 7.02 5.25 10.52.51 1.04 1.03 2.07 1.56 3.13 4.87 9.75 9.96 19.33 15.04 28.98h190c-6.54-13.08-14.1-25.64-21.57-38.21a2518 2518 0 0 1-10.62-18.1c-8.5-14.59-17.06-29.12-25.77-43.59-5.88-9.79-11.66-19.65-17.41-29.53-.68-1.17-1.36-2.35-2.05-3.52-.3-.51-.3-.51-1.8-3.1-.59-.98-1.18-1.95-1.78-2.95-.52-1.08-1.03-2.17-1.56-3.28-3.75-4.18-7.64-3.89-13.05-4.22-1.09-.09-2.17-.18-3.29-.27-3.62-.29-7.23-.54-10.85-.79l-7.6-.6c-5.4-.42-10.79-.83-16.18-1.22-8.59-.62-17.17-1.29-25.75-1.97-2.86-.23-5.72-.45-8.58-.68-.7-.05-1.4-.11-2.13-.17-4.76-.37-9.53-.74-14.29-1.1-12.65-.97-25.28-1.99-37.91-3.23-7.11-.7-14.22-1.31-21.34-1.9l-7-.6c-1.51-.13-3.03-.26-4.55-.38l-2.06-.18c-4.64-.39-9.21-.46-13.86-.41"/><path fill="#c27457" d="M289 53c3.17-.12 6.33-.19 9.5-.25.89-.03 1.77-.07 2.69-.1 8.25-.12 13.73 2.45 20.19 7.47.32.25.32.25 1.96 1.51C325 63 325 63 327 65v3l3 1c1.17 1.93 1.17 1.93 2.19 4.31.34.78.69 1.56 1.04 2.37C334 78 334 78 334 82h2c-.09.61-.09.61-.56 3.69-.45 3.38-.13 5.97.56 9.31l-2 2c-.08.85-.17 1.69-.25 2.56-1.81 8.29-8.25 14.9-14.94 19.75C316 121 316 121 314 121l-1 2c-2.72.91-4.86 1.25-7.69 1.5-4.45.41-8.88.93-13.31 1.5-.17-.33-.17-.33-1-2-.5.16-.5.16-3 1v-2c-.5.16-.5.16-3 1-1.83-1.18-1.83-1.18-4-3-1.91-1.4-3.83-2.79-5.75-4.19-.98-.71-1.97-1.43-2.98-2.17-.38-.27-.38-.27-2.27-1.64l1-3-3-1c-1.35-2.11-1.35-2.11-2.62-4.75-.43-.86-.86-1.72-1.29-2.61-1.06-2.56-1.59-4.93-2.09-7.64l-1-1c-.25-4.39-.06-7.16 2-11l-1-3h2c.12-.74.25-1.48.38-2.25.57-2.55 1.36-4.48 2.62-6.75h2l-1-3c.89-.56 1.77-1.11 2.69-1.69 2.28-1.5 3.82-2.84 5.75-4.87C280.1 56.95 283.82 55 289 55z"/><path fill="#3d4d63" d="M106 237c7.44-.11 14.88-.12 22.32-.02 3.81.04 7.59.01 11.39-.14 26.93-1.01 26.93-1.01 33.84 4.01 4.2 4.97 6.21 10.74 8.24 16.85 2.19 5.97 5.41 11.42 8.46 16.99 1.12 2.1 2.23 4.21 3.33 6.32.47.89.93 1.78 1.42 2.7 1 2.29 1 2.29 1 5.29h-63c-13.96-25.59-13.96-25.59-19.69-36.69-.6-1.16-1.21-2.32-1.83-3.52-4.35-8.41-4.35-8.41-5.48-11.79"/><path fill="#3e4d63" d="m80 185 4.35.15c.98.03 1.96.06 2.97.1 2.24.08 4.49.19 6.74.3 6.42.32 12.76.46 19.19.26 26.58-.77 26.58-.77 33.42 4.09 4.24 4.99 6.22 10.78 8.2 16.94 1.96 5.47 4.97 10.34 7.88 15.35 1.03 1.82 2.04 3.65 3.05 5.48.21.38.21.38 1.29 2.32.91 2.01.91 2.01.91 5.01-21.36.11-42.67.17-64-1-.41-.82-.81-1.64-1.23-2.48-1.9-3.82-3.8-7.64-5.71-11.46-.34-.68-.68-1.36-1.03-2.07-4.4-8.83-8.85-17.63-13.59-26.29C80 187.2 80 187.2 80 185"/><path fill="#edeae4" d="M46 132c24.93.86 49.81 3.12 74.62 5.56 1.22.12 2.43.23 3.68.35 1.11.11 2.22.23 3.36.34.97.1 1.93.2 2.92.3C133 139 133 139 136 141c-1 1-1 1-3.72 1.1-.55-.01-.55-.01-3.34-.04-1.11-.01-2.21-.02-3.35-.02-.85-.02-1.71-.03-2.59-.04.5 1.05.99 2.1 1.5 3.19 1.33 3.06 1.81 5.43 1.5 8.81-7-8.21-7-8.21-7-13-.94-.04-1.88-.07-2.86-.11-11.79-.53-23.56-1.44-35.33-2.39-.81-.07-1.63-.13-2.47-.2-2.38-.19-4.76-.39-7.13-.58-.71-.06-1.42-.12-2.15-.17-4.7-.4-9.38-.94-14.06-1.55 2.79 5.66 2.79 5.66 4.12 8.24 2.25 4.37 4.33 8.76 6.27 13.27 9.25 21.41 9.25 21.41 14.83 24.86 4.61 1.32 8.93.72 13.59-.1 3.59-.45 6.75.18 10.31.79 1.14.18 2.28.36 3.45.54.8.13 1.6.26 2.43.4v1H80c.87 1.68.87 1.68 5.25 10.21 1.67 3.25 3.34 6.51 5 9.76 1.17 2.27 2.33 4.53 3.5 6.8 1.67 3.25 3.33 6.5 5 9.75.52 1.02 1.05 2.04 1.59 3.09.48.94.96 1.88 1.46 2.85l1.29 2.52C104 232 104 232 104 234l1.66-.03c21.16-.34 42.22.85 63.34 2.03v-2c2.81.5 2.81.5 17 3v2h-12c.25.43.25.43 1.51 2.62 5.58 9.76 10.82 19.69 15.97 29.68 4.48 8.69 4.48 8.69 6.91 12.82C200 287 200 287 200 289h55l-5-9v-3c3.66 1.22 3.92 2.13 5.69 5.44.43.8.87 1.6 1.32 2.43.99 2.13.99 2.13.99 4.13h50c-1.91-4.46-3.62-8.3-6.04-12.41-.57-.98-1.15-1.97-1.74-2.98-1.25-2.11-2.52-4.22-3.79-6.32-5.5-9.12-5.5-9.12-7.37-14.16-3.09-7.83-3.09-7.83-7.06-10.13-8.16-1.88-16.56-1.42-24.86-1.07-3.83.08-7.36-.3-11.14-.93l1-2h33l-10.74-18.28c-3.13-5.33-6.26-10.66-9.31-16.04-.39-.67-.77-1.35-1.17-2.05C258 201 258 201 258 199c2.2-.47 2.2-.47 5 0 1.86 2.52 3.29 4.82 4.75 7.56.88 1.58 1.76 3.16 2.64 4.73l1.33 2.41c1.83 3.28 3.77 6.48 5.72 9.68 3.27 5.42 6.46 10.88 9.62 16.37 5.32 9.23 10.75 18.4 16.19 27.56 1.92 3.23 3.84 6.46 5.75 9.69.66 1.12 1.32 2.23 2.01 3.38.63 1.07 1.26 2.14 1.91 3.25.57.96 1.14 1.92 1.72 2.91C316 289 316 289 317 292H127c-25.47-49.87-25.47-49.87-35.91-70.84-2.94-5.9-6-11.73-9.11-17.55-4.7-8.87-9.13-17.88-13.6-26.86-4.66-9.37-9.39-18.68-14.32-27.91-2.92-5.51-5.61-11.1-8.06-16.84m60 105c1.54 4.05 3.4 7.86 5.38 11.71.33.64.66 1.28 1 1.95.7 1.36 1.41 2.72 2.11 4.08 1.05 2.03 2.09 4.05 3.13 6.08.69 1.34 1.38 2.67 2.07 4.01.3.58.6 1.16.9 1.76 3.94 7.59 8.21 14.95 12.41 22.41h63c-.9-4.49-2.23-7.8-4.32-11.78-.33-.65-.67-1.29-1.01-1.96-.71-1.37-1.43-2.74-2.14-4.11-1.07-2.05-2.13-4.09-3.19-6.14-1.39-2.7-2.82-5.37-4.26-8.04a88 88 0 0 1-3.81-8.03c-1.66-3.77-3.41-6.9-6.27-9.94-5.57-2.02-10.82-1.97-16.69-1.88-1.59-.02-3.19-.05-4.79-.09-4.05-.08-8.1-.07-12.15-.04-3.73.02-7.46-.03-11.19-.07-6.73-.06-13.45-.02-20.18.08"/><path fill="#3d4d62" d="M55 136c12.05.62 24.09 1.4 36.12 2.3 2.67.2 5.34.4 8.01.59l5.17.39c.78.06 1.57.12 2.38.17 1.46.12 2.92.24 4.37.38 1.75.15 3.5.24 5.25.32 3.22 1.01 4.11 2.33 5.67 5.26.3.61.6 1.23.91 1.86l1 1.94c1.06 2.04 2.09 4.1 3.12 6.17.69 1.34 1.38 2.69 2.08 4.04q2.025 3.93 4.02 7.89c2.16 4.25 4.5 8.4 6.87 12.54C141 182 141 182 141 185c-11.74-.32-11.74-.32-16.98-.55-6.59-.29-13.12-.49-19.72-.26-22.58.74-22.58.74-28.75-4.12-4.13-5.08-6.33-10.87-8.43-17.01-1.81-4.96-4.34-9.53-6.81-14.18-.82-1.63-1.64-3.26-2.45-4.89l-1.02-2.05c-.85-1.96-1.38-3.85-1.84-5.94"/><path fill="#3d4d64" d="M174 239c.92 0 1.84 0 2.78.01h3.95a438 438 0 0 0 14.18-.13c30.43-.74 30.43-.74 37.7 3.72 3.77 4.2 5.11 9.18 6.5 14.55 1.65 5.29 4.58 9.94 7.33 14.73 1 1.82 2 3.65 2.99 5.49 1.42 2.59 2.87 5.12 4.42 7.64C255 287 255 287 255 289h-55l-10.47-19.71-1.03-1.94c-.7-1.33-1.41-2.65-2.11-3.98-1.89-3.56-3.79-7.12-5.7-10.67-.19-.34-.19-.34-1.12-2.08-.69-1.29-1.39-2.59-2.1-3.88-1.37-2.57-2.55-4.97-3.47-7.74"/><path fill="#3c4d63" d="m148 189 21.62 1.2c.78.04 1.57.09 2.37.13 1.59.09 3.18.19 4.77.28 4.1.25 8.17.41 12.28.4 11.6.06 11.6.06 14.91 2.32 1.38 2.15 2.16 4.28 3.05 6.67 1.26 2.3 2.54 4.57 3.85 6.84.7 1.26 1.39 2.52 2.08 3.78 1.42 2.59 2.85 5.17 4.28 7.76 3.38 6.15 6.72 12.3 9.79 18.62-7.04.12-14.07.11-21.11.02-2.67-.01-5.32 0-7.99.04-23.11.36-23.11.36-28.8-3.27-3-3.43-3.91-7.63-5.1-11.93-1.95-5.58-5.06-10.67-7.93-15.82-1.72-3.08-3.4-6.18-5.07-9.28-.58-1.06-1.16-2.12-1.75-3.22C148 191 148 191 148 189"/><path fill="#3e4e64" d="M233 241c5.88-.06 11.76-.05 17.64-.01 2.33.01 4.67-.01 7.01-.04 3.76-.04 7.52-.03 11.29-.01l3.64-.09c8.2.12 8.2.12 11.28 2.73 1.64 2.38 2.87 4.81 4.14 7.42.96 1.67 1.92 3.34 2.9 5.01 1.78 3.04 3.5 6.11 5.22 9.18 1.06 1.87 2.12 3.75 3.18 5.62.96 1.69 1.92 3.39 2.87 5.08 1.83 3.11 1.83 3.11 4.06 6.26C308 285 308 285 308 289h-50l-6.88-12.88c-5.01-9.37-10.05-18.73-15.32-27.96-2.8-4.95-2.8-4.95-2.8-7.16"/><path fill="#3d4d63" d="M123 142c6.14.19 12.27.46 18.4.8 2.53.14 5.06.27 7.59.4 3.48.17 6.96.4 10.44.66 1.37.09 2.75.17 4.12.24 10.83.52 10.83.52 14.45 3.61 1.62 2.35 2.8 4.7 4 7.29 1.09 1.96 2.19 3.93 3.29 5.88q1.68 3.12 3.33 6.24c1.12 2.09 2.24 4.18 3.36 6.26.52.97 1.03 1.94 1.57 2.95 1.24 2.29 2.53 4.54 3.85 6.79C199 186 199 186 199 188c-1.09-.01-2.17-.01-3.29-.02-1.52 0-3.04 0-4.56-.01-.81 0-1.62 0-2.46-.01-4.12 0-8.24.04-12.36.22-27.02 1.19-27.02 1.19-33.97-4.24-4.18-5.36-6.26-11.45-8.29-17.88-1.67-4.78-4.22-8.98-6.82-13.31-4.25-7.3-4.25-7.3-4.25-10.75"/><path fill="#3e4e64" d="M206 193h4.84c.54.01.54.01 3.32.01 2.72-.01 5.42-.04 8.14-.1 28.02-.52 28.02-.52 35.14 3.45 3.58 3.6 4.93 8.08 6.46 12.83 2.03 5.21 5.19 9.83 8.16 14.55 1.7 2.71 3.36 5.45 5.01 8.19.28.47.28.47 1.71 2.82C280 237 280 237 280 239c-7.32.08-7.32.08-10.77.01-5.65-.09-11.12.14-16.75.68-15.34 1.08-15.34 1.08-22.48-1.69-6.58-6.01-9.58-14.56-12.69-22.72-1.8-4.5-4.13-8.57-6.62-12.72-3.54-6.1-3.54-6.1-4.69-9.56"/><path fill="#3d4d63" d="M180 147c9.12-.17 18.21.2 27.31.79 1.68.1 3.35.18 5.03.25 13.88.57 13.88.57 17.9 3.71 1.59 2.34 2.66 4.64 3.76 7.25 1.06 1.82 2.15 3.62 3.25 5.41 1.11 1.88 2.21 3.77 3.31 5.65 1.11 1.89 2.21 3.78 3.32 5.66.52.9 1.05 1.79 1.59 2.71 1.8 3.03 3.71 5.98 5.66 8.91.87 1.66.87 1.66.87 4.66h-5.38c-1.19-.01-2.38-.01-3.6-.02-2.75 0-5.5.06-8.24.14-27.04.73-27.04.73-34.66-5.46-4.64-5.87-7.35-12.52-9.9-19.5-1.74-4.51-4.11-8.53-6.6-12.66-3.62-6.31-3.62-6.31-3.62-7.5"/><path fill="#2b3239" d="M124 132c1.67-.04 3.33-.04 5 0l1 1c1.88 0 3.76 0 5.63-.03 4.15.05 8.25.58 12.37 1.03 9.93 1 9.93 1 14.62 1H165l1 1c2.92.24 5.82.42 8.75.56.41.02.41.02 2.46.13 3.28.17 6.52.31 9.81.27C189 137 189 137 190 138c2.27.22 4.54.37 6.81.5 1.38.08 2.76.17 4.14.25.34.02.34.02 2.08.13 3.67.23 7.32.55 10.98.87 2.15.18 4.3.33 6.45.46 1.15.08 2.29.15 3.48.23 1.04.06 2.08.12 3.15.18 4.47.58 8.05 1.77 10.91 5.38v2l2 1a87 87 0 0 1 3.12 4.94c.54.89 1.08 1.79 1.64 2.71C246 159 246 159 246 161l2 1c1.07 1.62 2.05 3.31 3 5 .43.75.86 1.49 1.3 2.26 3.7 6.48 3.7 6.48 3.7 8.74l2 1c2.71 3.61 4.47 6.48 5 11h2c1.52 2.27 1.52 2.27 3.25 5.38.31.54.31.54 1.89 3.32.61 1.09 1.23 2.18 1.86 3.3 1.01 1.71 2.03 3.42 3.06 5.12.48.8.96 1.6 1.46 2.43 1.04 1.72 2.08 3.44 3.12 5.15.26.44.26.44 1.61 2.68.48.79.96 1.58 1.45 2.39 3.3 5.66 3.3 5.66 3.3 9.23l2 1c4.45 5.68 7.73 12.13 11.09 18.48 1.99 3.73 4.16 7.34 6.35 10.96 3.03 5.01 6.03 10.04 8.94 15.12.62 1.1 1.25 2.19 1.89 3.32C321 286.42 321 286.42 321 289h-2l-1 3c-3.59-4.09-6.42-8.2-9-13-3.61-6.57-7.36-13.05-11.19-19.5-4.7-7.92-9.36-15.86-14-23.81-7.88-13.53-15.8-27.03-23.87-40.44-6.55-10.88-12.99-21.81-19.39-32.77-.35-.59-.7-1.19-1.06-1.8-.94-1.62-1.88-3.23-2.83-4.85-.55-.93-1.09-1.87-1.66-2.83-.17-.46-.17-.46-1-2.78-3.5-3.88-8.43-3.36-13.43-3.7-1.15-.09-2.31-.19-3.51-.29-3.79-.31-7.58-.58-11.37-.85l-7.8-.63c-6.45-.52-12.89-1.01-19.34-1.49-6-.44-12.01-.91-18.01-1.38-3.95-.31-7.91-.61-11.86-.89-7.99-.59-15.81-1.49-23.68-2.99z"/><path fill="#2a3137" d="M289 53c3.17-.12 6.33-.19 9.5-.25.89-.03 1.77-.07 2.69-.1 8.25-.12 13.73 2.45 20.19 7.47.32.25.32.25 1.96 1.51C325 63 325 63 327 65v3l3 1c1.17 1.93 1.17 1.93 2.19 4.31.34.78.69 1.56 1.04 2.37C334 78 334 78 334 82h2c-.09.61-.09.61-.56 3.69-.45 3.38-.13 5.97.56 9.31l-2 2c-.08.85-.17 1.69-.25 2.56-1.81 8.29-8.25 14.9-14.94 19.75C316 121 316 121 314 121l-1 2c-2.72.91-4.86 1.25-7.69 1.5-4.45.41-8.88.93-13.31 1.5-.17-.33-.17-.33-1-2-.5.16-.5.16-3 1v-2c-.5.16-.5.16-3 1-1.83-1.18-1.83-1.18-4-3-1.91-1.4-3.83-2.79-5.75-4.19-.98-.71-1.97-1.43-2.98-2.17-.38-.27-.38-.27-2.27-1.64l1-3-3-1c-1.35-2.11-1.35-2.11-2.62-4.75-.43-.86-.86-1.72-1.29-2.61-1.06-2.56-1.59-4.93-2.09-7.64l-1-1c-.25-4.39-.06-7.16 2-11l-1-3h2c.12-.74.25-1.48.38-2.25.57-2.55 1.36-4.48 2.62-6.75h2l-1-3c.89-.56 1.77-1.11 2.69-1.69 2.28-1.5 3.82-2.84 5.75-4.87C280.1 56.95 283.82 55 289 55zm-14 17c-6.12 8.26-6.91 15.91-6 26 1.17 3.73 2.81 6.78 5 10l1.16 1.77c4.22 5.68 10.98 9.72 17.84 11.23 9.79.94 17.55-1.22 25.21-7.39 6.37-5.73 10.34-12.24 10.95-20.86.31-8.74-1.93-15.02-7.36-21.86-6.62-6.95-14.19-9.88-23.68-10.27-9.67.21-16.62 4.36-23.12 11.38"/><path fill="#a7b4a1" d="m359.625 295.875 2.38.12c1.14 3.43 1.03 3.92-.52 7.51-.71 1.36-1.44 2.71-2.17 4.06-2.97 5.66-5.53 11.21-7.53 17.3-.78 2.13-.78 2.13-2.78 5.13-.76 2.05-1.46 4.12-2.13 6.19-.35 1.09-.71 2.18-1.07 3.3-.27.83-.53 1.66-.8 2.51-2.32.63-2.32.63-5 1-1-.65-1.99-1.31-3-2-.42.52-.83 1.04-1.26 1.57-.57.47-1.15.95-1.74 1.43-2.14-.25-3.46-.45-5-2-.57-2.85-1.09-5.69-1.57-8.56-.14-.8-.27-1.61-.42-2.44-.34-2-.68-4-1.01-6h-2v-10c4-2 4-2 6.24-1.62.29.1.29.1 1.76.62.3 1.12.61 2.23.93 3.38 1.07 3.62 1.07 3.62 2.07 5.62 2.06.63 2.06.63 4 1 .14-.38.14-.38.88-2.3 3.64-9.17 7.8-16.99 15.12-23.7 2-2 2-2 4.62-2.12"/><path fill="#52605b" d="M79.813 292.5c.72.17 1.44.33 2.19.5 1.37 3.82.68 7.07 0 11h-2l1 4h-2l-1 17h-2c.03.96.07 1.93.1 2.92l.09 3.83c.03 1.25.06 2.51.1 3.8-.3 3.59-.66 5.02-3.29 7.45h-3c-4.6-7.2-4-15.71-4-24l2-1c.31-1.79.31-1.79.43-4.06.64-6.81 3.64-20.06 11.38-21.44"/><path fill="#95a491" d="M50 310c3.2.23 4.64.65 6.95 2.93.29.39.29.39 1.74 2.38.58.78 1.16 1.56 1.76 2.37C62 320 62 320 63.08 322.17 64 324 64 324 66 326h-2c.32.53.65 1.07.98 1.62 1.27 2.96 1.29 5.29 1.27 8.5.01 1.06.01 2.11.02 3.2C66 342 66 342 64 344c-1.96.03-1.96.03-4-1-1.38-2.91-1.38-2.91-2.56-6.5-1.19-3.59-1.19-3.59-2.44-6.5l-3-1v-4c-.49-1.09-.99-2.19-1.5-3.31-1.59-3.9-1.83-6.53-1.5-10.69z"/><path fill="#99a595" d="M92.688 314.375c.76.21 1.53.41 2.31.62-.33 2.32-.66 4.63-1 7-.99.33-1.98.67-3 1-.47 2.1-.93 4.2-1.33 6.31-1.2 4.83-3.48 9.23-5.67 13.69h-5l-2-7h-1v-11c.45-.18.45-.18 2.69-1.12 3.92-2.22 5.55-4.37 8.31-7.88 3-2 3-2 5.69-1.62"/><path fill="#758579" d="M369.313 317.813c.56.39 1.11.78 1.69 1.19-.5 4.38-1.99 6.8-5 10h-2c-.26.71-.51 1.43-.78 2.17-1.31 3.03-2.92 5.46-4.85 8.14-.63.88-1.26 1.77-1.91 2.68l-1.46 2.01-5-1c-.21-5.2-.19-9.18 2-14l-1-2c.59-.11 1.18-.21 1.78-.32 2.52-.78 3.73-1.77 5.65-3.56 7.39-6.53 7.39-6.53 10.88-5.31"/><path fill="#21292e" d="M124 132c1.67-.04 3.33-.04 5 0l1 1c1.88 0 3.76 0 5.63-.03 4.15.05 8.25.58 12.37 1.03 9.93 1 9.93 1 14.62 1H165l1 1c2.02.23 4.04.41 6.06.56.55.04.55.04 3.35.26.85.06 1.71.12 2.59.18-3.01 3.01-5.82 2.6-10 3v1c-14.38.37-28.83-.42-43-3z"/><path fill="#353c42" d="M300 16c2.87 2.2 3.01 3.06 3.75 6.81.54 6.41-.16 12.81-.75 19.19h-2l-1 3c-2.87-.57-3.86-.86-6-3-1.21-7.26-1.94-15.8 0-23 2.06-2.69 2.49-3 6-3"/><path fill="#31393f" d="m296 133 7 2c1.4 16.52 1.4 16.52 0 23l-2 2c-2.62-.33-4.64-.82-7-2-1.21-7.63-1.39-15.4 0-23z"/><path fill="#343f45" d="m328.625 312.875 2.38.12c1.73 3.32 3.21 6.35 4 10 .32.67.66 1.32 1 2h-2c.16.69.32 1.37.49 2.08.57 3.3.6 6.39.57 9.74l-.03 3.52-.03 2.66c-1.88.63-1.88.63-4 1-2.23-2.22-2.37-2.92-2.86-5.91-.13-.76-.25-1.52-.39-2.3-.12-.8-.25-1.59-.38-2.41-.13-.8-.27-1.6-.41-2.43-.33-1.98-.65-3.96-.96-5.95h-2c-.06-1.62-.1-3.24-.13-4.87-.02-.9-.05-1.81-.07-2.74.29-3.54 1.31-4.34 4.82-4.51"/><path fill="#1d252c" d="M249 36c6.04.8 8.74 4.12 12.88 8.31l2.12 2.06c.66.65 1.31 1.31 1.99 1.99.6.6 1.21 1.21 1.83 1.82C269 52 269 52 268.69 54.23q-.345.87-.69 1.77h-2v2c-5.27-.32-8.44-3.39-12-7l-1-2-2.44-2.38C248.38 44.39 247 42.91 246 40l1-2h2z"/><path fill="#76867b" d="M362 296c.75 1.56.75 1.56 1 4-1.13 2.5-2.52 4.67-4 7l-2-1v-2c-5.52 4.92-8.71 10.87-11.88 17.44-.39.8-.78 1.59-1.19 2.42-2.54 5.46-3.56 10.13-3.93 16.14h-1v-14h-2c1-2 1-2 3-5 .62-1.2 1.22-2.4 1.8-3.62.17-.34.17-.34 1.02-2.09.7-1.43 1.39-2.87 2.08-4.31 3.45-7.04 8.14-16 17.1-14.98"/><path fill="#1c252d" d="M266 120v2l3 1c-1.35 3.13-2.76 4.86-5.44 6.94-2.31 1.88-3.56 3.05-5.06 5.68-2.18 3.46-4.88 4.54-8.5 6.38l-4-4 2-1c.15-.61.29-1.23.44-1.86.67-2.55 1.62-3.57 3.5-5.39.52-.52 1.05-1.04 1.59-1.58C255 127 255 127 257 127c.27-.6.54-1.2.81-1.81 2.3-4.23 3.2-5.19 8.19-5.19"/><path fill="#171d25" d="M331 121c6.4.37 6.4.37 9.25 3.38.58.86 1.15 1.73 1.75 2.62l1.5 1.5c1.5 1.5 1.5 1.5 3.56 4.12C349 135 349 135 351 136l-1 4c-1.76.66-1.76.66-4 1-5.99-3.06-13.72-9.39-16-15.81 0-2.19 0-2.19 1-4.19"/><path fill="#242d34" d="M350 38c.71 1.76.71 1.76 1 4-1.37 1.89-1.37 1.89-3.44 3.81-.73.69-1.47 1.38-2.22 2.09L343 50c-.73.67-1.46 1.35-2.21 2.04-5.32 4.8-5.32 4.8-8.79 5.96v-2l-3-1c2.35-4.31 5.24-7.69 8.56-11.25.5-.54.99-1.08 1.5-1.64 3.98-4.31 5.2-5.47 10.94-4.11"/><path fill="#232c33" d="m351.324 84.707 3.12.03c.53.01.53.01 3.24.08 1.09.01 2.17.02 3.29.04 2.67.03 5.35.08 8.03.14.38 1.99.71 4 1 6-2.9 2.9-11.09 1.86-15 2-7.2-.04-7.2-.04-10-1-1.27-2.05-1.27-2.05-2-4 2.53-3.21 4.32-3.36 8.32-3.29"/><path fill="#1c262c" d="M229 85c2.34-.34 2.34-.34 5.23-.29.51 0 .51 0 3.12.03 1.08.02 2.16.05 3.27.07 1.09.02 2.18.03 3.3.04 2.7.04 5.39.09 8.08.15l2 5c-2 2-2 2-4.34 2.23l-2.89-.03c-.51-.01-.51-.01-3.12-.02l-3.27-.06c-1.09 0-2.18-.01-3.3-.02-2.69-.03-5.39-.06-8.08-.1l-2-4z"/><path fill="#d9d9d5" d="M166 187h37v2h8v1c-.56.06-.56.06-3.38.38C204 191 204 191 202 193c-2.06.13-2.06.13-4.63-.05-.96-.06-1.92-.12-2.91-.18-1.04-.08-2.08-.15-3.16-.23-1.06-.07-2.12-.14-3.22-.21-3.4-.23-6.8-.47-10.2-.71-2.31-.15-4.61-.3-6.92-.46-5.65-.37-11.31-.76-16.96-1.16v-1c1.98-.16 1.98-.16 12-1z"/><path fill="#1e252e" d="M188 301h74v1l-8 1v1c-7.44.15-14.88.3-22.32.44l-10.37.21c-3.98.08-7.96.16-11.94.23-.62.01-.62.01-3.73.08-5.67.1-11.06.1-16.64-.96z"/><path fill="#1b232b" d="M115 296h2c.23.8.45 1.61.69 2.44.43.84.86 1.69 1.31 2.56 2.62.81 2.62.81 5 1v-1h37v2h2v24h-1c-.16-1.49-.16-1.49-1-9-.33.17-.33.17-2 1v-15l-3.42.03c-4.2.04-8.4.06-12.6.08-1.81.01-3.63.02-5.44.04-2.61.03-5.23.04-7.84.05-.4 0-.4 0-2.45.03-6.97 0-6.97 0-10.25-2.23v-2l-2-1z"/><path fill="#172026" d="M43 126c2.81-.03 5.62-.05 8.44-.06l2.43-.03c2.04-.01 4.09.04 6.13.09l1 1c2.73.24 5.45.42 8.19.56.38.02.38.02 2.29.13 4.18.23 8.33.36 12.52.31v2h10c-2 2-2 2-4.28 2.23-.88-.01-1.75-.03-2.66-.04-.44-.01-.44-.01-2.65-.02C82 132 82 132 79 131l-3 2c-3.21.27-3.21.27-6.94.25-1.22.01-2.45.01-3.71.02-3.09-.25-4.77-.64-7.35-2.27l2-1c-4.96-1.32-9.91-1.09-15-1v-2z"/><path fill="#30373d" d="M280 228h4l1.75 3.25c1.37 2.42 2.5 4 4.5 6 .58.58 1.15 1.16 1.75 1.75v3l1.38 1.38c2.02 2.02 2.56 3.95 3.62 6.62 1.58 2.88 3.21 5.73 4.86 8.57q.555 1.2 1.14 2.43l-1 2c-4.08-1.36-4.46-3.13-6.5-6.88-.7-1.26-1.39-2.52-2.09-3.78l-1.15-2.09c-2.84-5.08-5.81-10.09-8.75-15.11-.23-.4-.23-.4-1.39-2.38-.2-.35-.2-.35-1.24-2.12C280 229 280 229 280 228"/><path fill="#171f27" d="M247 163c2.56 1.28 2.79 2.44 4 5 1.3 2.08 2.63 4.14 3.98 6.2C256 176 256 176 256 178l2 1c2.71 3.61 4.47 6.48 5 11h2c1.52 2.27 1.52 2.27 3.25 5.38 2.81 4.97 5.72 9.84 8.78 14.66.32.65.64 1.29.97 1.96l-1 2h-2a96 96 0 0 1-4.12-6.31c-.19-.3-.19-.3-1.13-1.81-2.75-4.5-2.75-4.5-2.75-7.88-1.32-1.34-2.66-2.67-4-4-1.11-1.88-2.14-3.8-3.12-5.75-3.25-6.25-6.89-12.16-10.77-18.04-1.09-1.7-2.11-3.45-3.11-5.21z"/><path fill="#1f272f" d="m316 300 1 2-2-1zm-48 1c1.94-.37 1.94-.37 4.33-.36.89 0 1.78 0 2.71-.01.96.02 1.93.03 2.93.04.99 0 1.98.01 3 .01 2.1 0 4.2.02 6.3.04 3.22.03 6.44.04 9.66.05 2.03 0 4.07.02 6.1.03.97 0 1.94.01 2.93.01l2.71.03c.4 0 .4 0 2.39.02C313 301 313 301 315 302v2h-49z"/><path fill="#41484b" d="M107 133c7.3.23 7.3.23 11-1 2.26.12 2.26.12 4.69.44.81.1 1.61.2 2.45.31.61.08 1.23.16 1.86.25l-2 5h6v1c-13.72-.56-27.34-1.59-41-3v-1l5-1v-1c1.62-.19 3.25-.38 4.88-.56.9-.11 1.8-.21 2.74-.32C105 132 105 132 107 133"/><path fill="#1e272d" d="M124 132c1.67-.04 3.33-.04 5 0l1 1c1.87 0 3.74 0 5.61-.03 5.82.07 11.71.71 17.39 2.03l-1 2c-3.06.62-3.06.62-6 1v1c-2.38.03-4.75.05-7.12.06-.34.01-.34.01-2.02.03-4.07.02-7.87-.3-11.86-1.09z"/><path fill="#e6e5e1" d="M179 149c4.01 1.34 4.39 2.98 6.4 6.65.32.58.63 1.15.96 1.74 1.01 1.85 2.01 3.7 3.02 5.55.66 1.21 1.33 2.42 2 3.63 3.69 6.74 7.25 13.53 10.62 20.43-1.81-.19-1.81-.19-4-1-1.55-2.16-1.55-2.16-3.02-5-.55-1.03-1.1-2.07-1.66-3.13l-1.7-3.31c-1.1-2.12-2.22-4.25-3.33-6.37-.27-.52-.27-.52-1.64-3.14-2.04-3.77-4.27-7.4-6.57-11.01C179 152 179 152 179 149"/><path fill="#94a492" d="m365 324 2 1-1 4h-2c-.26.72-.51 1.43-.77 2.17-1.32 3.03-2.92 5.46-4.85 8.14-.64.89-1.27 1.77-1.92 2.68L355 344l-5-1c7.54-15.27 7.54-15.27 15-19"/><path fill="#c3c4c2" d="M100 183c5.44.16 5.44.16 33 1v1l-7 1 8 1v1c-9.79.17-19.49-.37-29.25-1-1.54-.1-3.07-.19-4.61-.29-3.71-.23-7.43-.47-11.14-.71v-1c1.81-.16 1.81-.16 11-1z"/><path fill="#d8d7d2" d="M172 235c4.24.12 8.47.24 12.71.37 1.44.05 2.88.09 4.32.13l6.21.18c.63.02.63.02 3.78.11C202 236 202 236 204 237v3q-3.375.045-6.75.06c-1.25.01-2.51.03-3.8.04-2.74-.08-4.87-.27-7.45-1.1v-2c-2.31-.16-2.31-.16-14-1z"/><path fill="#1c252b" d="M290 236h2c1.48 2.2 1.48 2.2 3.19 5.25 1.91 3.39 3.82 6.76 5.86 10.08.64 1.04 1.29 2.09 1.95 3.17.6.96 1.2 1.92 1.81 2.91 1.19 2.59 1.19 2.59.88 4.93-.23.55-.46 1.1-.69 1.66-3.23-2.77-5.12-6.35-7.19-10-.37-.63-.73-1.26-1.11-1.91-2.7-4.72-2.7-4.72-2.7-8.09l-3-2v-3l-2-2z"/><path fill="#161f28" d="M289 53h7l-1 3c-1.86.62-1.86.62-4.19 1-7.18 1.4-13.6 4.55-18.01 10.66q-.51.81-1.05 1.65c-.58.89-1.15 1.78-1.75 2.69h-2v2h-2l1-4h2l-1-3c.89-.56 1.77-1.11 2.69-1.69 2.28-1.5 3.82-2.84 5.75-4.87C280.1 56.95 283.82 55 289 55z"/><path fill="#f0efe7" d="M203 190c3.77-.06 7.54-.09 11.31-.12l3.19-.06c7.06-.04 13.61.66 20.5 2.18v1c-10.71.15-21.31-.32-32-1v4h-2z"/><path fill="#cfd0cd" d="M252 190c.16.5.16.5 1 3l-6 1v1c-3.91-.12-7.82-.24-11.73-.37-1.97-.07-3.94-.13-5.91-.19-7.81-.25-15.58-.7-23.36-1.44v-1h27v-1l19 1z"/><path fill="#2c353d" d="M265 123c-.86 4.59-3.59 7.07-6.81 10.25-.54.55-1.07 1.11-1.62 1.68-4.08 4.07-4.08 4.07-8.57 4.07 1.4-4.9 4.05-6.93 8-10l1.62-1.62C262 123 262 123 265 123"/><path fill="#20282f" d="M277 214c3.92 1.31 4.28 2.79 6.19 6.38.53.97 1.06 1.95 1.6 2.96C286 226 286 226 286 229l2 1c1.04 1.64 2.05 3.31 3 5h-4c-3-4.07-3-4.07-3-7l-5-1v-2h2c-.29-.63-.58-1.25-.88-1.9-.37-.82-.74-1.63-1.12-2.48-.37-.81-.74-1.62-1.12-2.46C277 216 277 216 277 214"/><path fill="#2b3238" d="M333 123c4.01 1.61 6.76 4.42 9.75 7.44l1.54 1.48c1.3 1.3 2.51 2.69 3.71 4.08v3c-7.28-1.56-10.43-6.59-14.38-12.44-.53-.84-1.07-1.69-1.62-2.56z"/><path fill="#2f363d" d="M250 39c3.98 1.61 6.71 4.38 9.69 7.38.5.48.99.96 1.51 1.46 2.56 2.55 4.42 4.47 4.8 8.16l-3 1-1.06-2.12c-2.1-3.12-4.34-5.09-7.22-7.45-2.04-1.69-3.89-3.52-5.72-5.43z"/><path fill="#444c51" d="m270 77-1 9-4 1-1 5-3 1c-.17-4.33-.16-7.23 2-11v-3c4.75-2 4.75-2 7-2"/><path fill="#111b22" d="m343 88 3 1c1.77.15 3.55.25 5.32.32l3.12.12 3.25.12c1.08.05 2.16.09 3.28.13 2.68.11 5.35.21 8.03.31l1-2-1 4c-18.83 1.76-18.83 1.76-24 0-1.27-2.05-1.27-2.05-2-4"/><path fill="#d7d5ce" d="m133 139 19 1v4l-20-1 3-2z"/><path fill="#c5bdae" d="m336 324 1 2h2v15l-4 1-1-17z"/><path fill="#192127" d="M265 103h2c2.74 2.74 5.06 5.8 7.45 8.85.51.63 1.02 1.25 1.55 1.9q.705.885 1.44 1.8c1.81 1.68 3.14 2.05 5.56 2.45-.33.5-.33.5-2 3l-11-8 1-3-3-1c-1.69-3.06-1.69-3.06-3-6"/><path fill="#d7d7d4" d="M165 223c3.1 3.51 4.74 6.49 6 11h-2v2h-21v-1h20l-4-8z"/><path fill="#c1c3c2" d="M203 187v2h8v1c-1.11.12-2.23.25-3.38.38C204 191 204 191 202 193c-1.88.14-1.88.14-4.13-.02-.81-.05-1.61-.11-2.44-.16-.85-.06-1.69-.13-2.55-.2-.85-.05-1.7-.11-2.58-.17q-3.15-.21-6.3-.45v-1c2.15-.16 2.15-.16 13-1-.99-.16-.99-.16-6-1v-1c4.08-.54 7.87-1 12-1"/><path fill="#67786d" d="M343 315c1.12 3.36.83 5.58 0 9-.17.89-.33 1.77-.5 2.69C342 329 342 329 341 331c-.22 1.54-.41 3.08-.56 4.62-.09.82-.17 1.64-.26 2.48-.06.63-.12 1.25-.18 1.9h-1v-14h-2c1-2 1-2 3-5q1.53-2.985 3-6"/><path fill="#767a7c" d="M294 19c2 2 2 2 2.23 4.06l-.03 2.51c-.01.9-.02 1.79-.02 2.72l-.06 2.83c0 .95-.01 1.89-.02 2.87-.03 2.34-.06 4.67-.1 7.01l-2 1c-.8-7.83-1.15-15.2 0-23"/><path fill="#171f26" d="M232 142c3.44 1.55 4.45 2.57 6 6l2 1a87 87 0 0 1 3.12 4.94c.54.89 1.08 1.79 1.64 2.71C246 159 246 159 246 161l2 1h-4c-.36-.69-.73-1.38-1.1-2.09-3.32-6.21-6.87-12.13-10.9-17.91"/><path fill="#172027" d="M83 233h3c5 9.77 5 9.77 5 15h-2c-1.01-1.93-2.01-3.87-3-5.81-.56-1.08-1.11-2.16-1.69-3.27C83 236 83 236 83 233"/><path fill="#3f4549" d="M83 131c1.67.34 3.33.68 5 1-.33.5-.33.5-2 3-1.97.25-1.97.25-4.35.07-.85-.05-1.7-.11-2.58-.16-.89-.07-1.78-.15-2.69-.22-.9-.06-1.8-.12-2.72-.19-2.22-.15-4.44-.32-6.66-.5v-1l6-1v-1c3.72-.76 6.38-1.17 10 0"/><path fill="#394247" d="m200 139 6 3v1c-7.04.94-13.9 1.11-21 1v-1l5-1v-1l1.93-.18c.42-.05.42-.05 2.51-.26.82-.08 1.64-.16 2.49-.24C199 140 199 140 200 139"/><path fill="#1d272f" d="M268 84c.29 3.38.45 6.63 0 10-2.5 2.62-2.5 2.62-5 4-1.22-6.34-1.22-6.34-.25-9.25C266.14 84 266.14 84 268 84"/><path fill="#7e8284" d="M294 135c2.1 3.15 2.24 3.86 2.2 7.45-.01.85-.02 1.69-.02 2.57l-.06 2.67c0 .89-.01 1.78-.02 2.7-.03 2.21-.06 4.41-.1 6.61h-1c-1.8-5.29-2.13-9.29-1.62-14.94.05-.68.11-1.37.17-2.07.14-1.66.29-3.33.45-4.99"/><path fill="#18222a" d="m343 38 2 1c-1.42 1.66-2.85 3.32-4.28 4.98-1.13 1.33-2.25 2.66-3.35 4.01-.51.62-1.03 1.24-1.56 1.89-.47.57-.93 1.14-1.42 1.74C333 53 333 53 330 54c1.66-4.12 4.62-7.07 7.62-10.25.52-.55 1.04-1.11 1.57-1.68 1.26-1.36 2.54-2.72 3.81-4.07"/><path fill="#dcdad5" d="M104 136v4l-18-1v-1c6.12-1.4 11.72-2.23 18-2"/><path fill="#f7f4eb" d="M204 237c6.64-.21 12.53.49 19 2v1h-19z"/><path fill="#373d41" d="m153 135 2 1v2l3 1c-7.04.94-13.9 1.11-21 1v-1l6-1v-1l1.93-.18c.83-.09 1.66-.17 2.51-.26.82-.08 1.64-.16 2.49-.24C152 136 152 136 153 135"/><path fill="#10171e" d="M108 282c3 1 3 1 4.39 3.72.43 1.1.86 2.21 1.3 3.34.43 1.11.87 2.21 1.32 3.35.33.85.65 1.71.99 2.59h-3l-.88-1.88C111 291 111 291 109 289c-.71-1.98-1.39-3.98-2-6z"/><path fill="#333a41" d="M306 270c.82.17.82.17 5 1l3 11c-3.44-2.58-5.61-4.5-8-8z"/><path fill="#f5f1e9" d="M150 141q2.595-.045 5.19-.06c.96-.01 1.92-.03 2.92-.04 2.75.1 5.21.48 7.89 1.1-2 2-2 2-4.82 2.2-1.09-.03-2.18-.05-3.3-.08-1.1-.01-2.2-.03-3.33-.05-.42-.01-.42-.01-2.55-.07v-2z"/></svg>