<svg xmlns="http://www.w3.org/2000/svg" width="419" height="353"><path fill="#e5d9c5" d="M117.875 59.75c.71.18 1.42.36 2.15.55 5.08 1.34 9.41 3.05 13.97 5.7 1.34.75 2.67 1.5 4 2.25 1 .58 1.99 1.16 3 1.75v2h3v2c.58.11 1.16.21 1.75.32 2.57.78 4.18 1.87 6.32 3.49.67.5 1.34 1.01 2.03 1.52 1.97 1.73 3.35 3.57 4.9 5.67 1.65 1.03 3.32 2.03 5 3 1.82 1.56 1.82 1.56 3 3v2c.56.19 1.12.37 1.69.56 3.38 2.1 5.17 5.15 7.31 8.44.11-.3.11-.3.67-1.79 2.68-6.69 5.34-10.06 11.77-13.52 4.38-1.18 8.27-1.12 12.56.31v2c.77.29 1.53.58 2.32.87 2.68 1.13 2.68 1.13 5.68 3.13v3h2c3.32 13.66 3.32 13.66 0 20-4.68 5.04-9.36 7.32-16 9 .49.96.97 1.92 1.47 2.9 21.25 42.14 21.25 42.14 20.53 56.1h2c.67 11.75.9 20.9-6 31-.38.63-.76 1.27-1.16 1.92-3.35 4.87-8.49 6.29-13.84 8.08-.99.39-1.97.78-3 1.19-3.51.95-6.91 1.28-10.53 1.56-2.47.25-2.47.25-4.86.77-3.1.57-6.02.61-9.17.61h-3.38c-2.59-.11-4.58-.46-7.06-1.13-1.83-.19-3.66-.36-5.5-.5-3.28-.25-6.33-.6-9.5-1.5v-2l-3.56-.31c-4.21-.53-7.57-1.9-11.44-3.69-2.06-.77-4.12-1.52-6.2-2.25-1.8-.75-1.8-.75-4.8-2.75v-2c-1.31-.33-2.64-.66-4-1-5.17 4.78-5.64 8.64-5.95 15.59-.02.79-.03 1.59-.05 2.41h1l-.03 3.46-.03 4.48c-.01.75-.01 1.51-.02 2.28-.01 1.93.03 3.86.08 5.78l1 1c.08 2.85 0 5.68-.06 8.53.06 2.47.06 2.47 1.06 3.47.46 2.65.71 5.32 1 8 .5-.07.5-.07 3.01-.4 11.46-1.47 22.89-2.18 34.43-2.66 1.88-.09 3.75-.17 5.62-.25 16.98-.74 33.96-1.27 50.94-1.69.12-.6.24-1.19.37-1.81 1.19-5.67 2.86-10.1 5.63-15.19h2c.28-.73.55-1.45.83-2.2 1.15-2.73 2.48-5.1 4.05-7.61 2.63-4.3 4.94-8.65 7.12-13.19h2c.12-.4.12-.4.69-2.44 1.65-4.47 3.92-8.45 6.31-12.56h2c.34-1.65.66-3.3 1-5h2c.34-1.65.66-3.3 1-5h2c.34-1.65.66-3.3 1-5h2c.34-1.65.66-3.3 1-5h2v-3h2c.05-.74.09-1.49.13-2.25 1.26-3.97 3.27-4.77 6.87-6.75 3.8-.64 3.8-.64 7.76-.81 1.31-.07 2.62-.14 3.98-.21 3.26.02 3.26.02 5.26 1.02 1.42.13 2.84.2 4.27.25.43.01.43.01 2.64.1 1.81.06 3.61.11 5.41.17 5.2.2 10.28.65 15.43 1.38 9.49 1.33 19.01 2.14 28.55 2.96 3.1.27 6.2.54 9.29.82 2 .17 4 .34 6 .52.91.08 1.83.16 2.77.24 4.93.42 9.8.63 14.75.54 2.57.03 4.82.53 7.27 1.27l2.46.7c2.67 1.29 3.71 2.49 5.16 5.05.89 5.23.01 10.12-2 15h-2c-.48 1.42-.95 2.83-1.43 4.25-.27.79-.54 1.58-.81 2.39-.67 2.11-1.25 4.21-1.76 6.36h-2c-.1.87-.21 1.75-.32 2.65-.69 3.45-1.77 5.88-3.42 8.98-3.11 5.99-5.74 12.11-8.26 18.37h-2l-.18 2.37c-.92 4.09-2.51 7.29-4.46 10.97-1.61 3.17-2.98 6.39-4.36 9.66.79.19 1.57.37 2.37.56 3.61.87 7.22 1.75 10.82 2.63 1.23.29 2.46.58 3.72.88 31.43 7.71 31.43 7.71 39.09 18.93 1.13 3.79 1.45 5.87 0 9.56-22.65 27.61-79.16 28.17-112 31.44-55.44 5.39-112.54 5.09-168 0-.8-.07-1.6-.15-2.42-.22-30.56-2.81-63.6-6.32-91.51-19.78-.65-.31-1.29-.62-1.96-.93-4.58-2.37-7.16-4.95-10.11-9.07-1.24-4.1-1.41-6.06.32-10 10.8-13.72 31.61-17.34 47.56-21.43 1.73-.46 3.43-1.01 5.12-1.57v-2c4.5-2.25 8.08-2.17 13-2 .07-.95.13-1.91.19-2.89.08-1.25.17-2.51.25-3.8.04-.62.04-.62.25-3.76.31-3.55.31-3.55.83-5.86.57-3.15.6-6.1.58-9.3 0-1.25 0-2.5-.01-3.78-.01-1.3-.01-2.59-.02-3.92-.01-1.32-.01-2.63-.02-3.98-.01-3.24-.02-6.47-.05-9.71-.61-.29-1.23-.57-1.86-.87-3.59-1.9-5.56-4.43-6.87-8.28-1.41-5.7-1.24-9.3.86-14.79 2.34-3.81 5.18-6.55 8.87-9.06h2c-1.43-3.93-3.31-7.31-5.5-10.87-2.57-4.36-4.37-8.17-5.5-13.13-.48-1.46-.98-2.92-1.5-4.37-1.99-5.95-3.34-11.9-4.06-18.13-.44-3.5-.44-3.5-1.44-4.5-.09-1.54-.13-3.08-.13-4.62v-2.84c0-.98.01-1.96.01-2.98 0-.49 0-.49-.01-2.97v-2.84c0-.86 0-1.72.01-2.61.12-2.14.12-2.14 1.12-4.14.07-.64.07-.64.38-3.87.82-7.97 2.44-15.28 6.62-22.13.67-1.78 1.3-3.57 1.88-5.37 1.74-4.95 3.74-8.62 7.12-12.63h2c.23-.58.46-1.16.69-1.75 2.69-4.6 7.24-7.22 12.19-8.88 5.55-.97 10.61-.01 16 1.38"/><path fill="#1d272d" d="M117.875 59.75c.71.18 1.42.36 2.15.55 5.08 1.34 9.41 3.05 13.97 5.7 1.34.75 2.67 1.5 4 2.25 1 .58 1.99 1.16 3 1.75v2h3v2c.58.11 1.16.21 1.75.32 2.57.78 4.18 1.87 6.32 3.49.67.5 1.34 1.01 2.03 1.52 1.97 1.73 3.35 3.57 4.9 5.67 1.65 1.03 3.32 2.03 5 3 1.82 1.56 1.82 1.56 3 3v2c.56.19 1.12.37 1.69.56 3.38 2.1 5.17 5.15 7.31 8.44.22-.59.44-1.18.67-1.79 2.68-6.69 5.34-10.06 11.77-13.52 4.38-1.18 8.27-1.12 12.56.31v2c.77.29 1.53.58 2.32.87 2.68 1.13 2.68 1.13 5.68 3.13v3h2c3.32 13.66 3.32 13.66 0 20-4.68 5.04-9.36 7.32-16 9 .49.96.97 1.92 1.47 2.9 21.25 42.14 21.25 42.14 20.53 56.1h2c.67 11.75.9 20.9-6 31-.38.63-.76 1.27-1.16 1.92-3.35 4.87-8.49 6.29-13.84 8.08-.99.39-1.97.78-3 1.19-3.51.95-6.91 1.28-10.53 1.56-2.47.25-2.47.25-4.86.77-3.1.57-6.02.61-9.17.61h-3.38c-2.59-.11-4.58-.46-7.06-1.13-1.83-.19-3.66-.36-5.5-.5-3.28-.25-6.33-.6-9.5-1.5v-2l-3.56-.31c-4.21-.53-7.57-1.9-11.44-3.69-2.06-.77-4.12-1.52-6.2-2.25-1.8-.75-1.8-.75-4.8-2.75v-2c-1.31-.33-2.64-.66-4-1-5.17 4.78-5.64 8.64-5.95 15.59-.02.79-.03 1.59-.05 2.41h1l-.03 3.46-.03 4.48c-.01.75-.01 1.51-.02 2.28-.01 1.93.03 3.86.08 5.78l1 1c.08 2.85 0 5.68-.06 8.53.06 2.47.06 2.47 1.06 3.47.46 2.65.71 5.32 1 8 .62-.02 1.23-.05 1.87-.07l2.45-.06c.8-.02 1.6-.04 2.42-.07 4.4.38 8.26 4.08 11.26 7.2 1.93 2.88 3.44 5.89 4.94 9 .41.79.82 1.59 1.25 2.41 2.86 5.8 2.86 5.8 2.63 9.59-.82 2-.82 2-1.82 3-2.45.1-4.89.14-7.34.13h-2.34c-2.55.01-5.1.01-7.66 0-1.77 0-3.53 0-5.3.01-3.71 0-7.42 0-11.13-.01-4.76-.01-9.53 0-14.29 0-3.65.01-7.31.01-10.96 0-1.75 0-3.51 0-5.27.01-2.45 0-4.9-.01-7.36-.01-.73 0-1.46 0-2.22.01-5.01-.03-5.01-.03-6.13-1.14-.7-5.72 1.39-9.49 4-14.37.39-.74.77-1.48 1.16-2.24.94-1.8 1.89-3.6 2.84-5.39h-2v-2l6-2v-2c4.5-2.25 8.08-2.17 13-2 .07-.95.13-1.91.19-2.89l.25-3.8c.08-1.24.16-2.48.25-3.76.31-3.55.31-3.55.83-5.86.57-3.15.6-6.1.58-9.3 0-1.25 0-2.5-.01-3.78-.01-1.3-.01-2.59-.02-3.92-.01-1.32-.01-2.63-.02-3.98-.01-3.24-.02-6.47-.05-9.71-.61-.29-1.23-.57-1.86-.87-3.59-1.9-5.56-4.43-6.87-8.28-1.41-5.7-1.24-9.3.86-14.79 2.34-3.81 5.18-6.55 8.87-9.06h2c-1.43-3.93-3.31-7.31-5.5-10.87-2.57-4.36-4.37-8.17-5.5-13.13-.48-1.46-.98-2.92-1.5-4.37-1.99-5.95-3.34-11.9-4.06-18.13-.44-3.5-.44-3.5-1.44-4.5-.09-1.54-.13-3.08-.13-4.62v-2.84c0-.98.01-1.96.01-2.98 0-.98-.01-1.96-.01-2.97v-2.84c0-.86 0-1.72.01-2.61.12-2.14.12-2.14 1.12-4.14.13-1.28.25-2.56.38-3.87.82-7.97 2.44-15.28 6.62-22.13.67-1.78 1.3-3.57 1.88-5.37 1.74-4.95 3.74-8.62 7.12-12.63h2c.23-.58.46-1.16.69-1.75 2.69-4.6 7.24-7.22 12.19-8.88 5.55-.97 10.61-.01 16 1.38"/><path fill="#8da48f" d="M276 175c1.42.13 2.84.2 4.26.25.44.01.44.01 2.65.1 1.8.06 3.6.11 5.4.17 5.2.2 10.28.65 15.44 1.38 9.48 1.33 19 2.14 28.54 2.96 3.1.27 6.2.54 9.3.82 2 .17 4 .34 6 .52.91.08 1.82.16 2.76.24 4.94.42 9.8.63 14.76.54 2.56.03 4.82.53 7.27 1.27l2.46.7c2.66 1.29 3.7 2.49 5.16 5.05.88 5.23 0 10.12-2 15h-2c-.48 1.42-.96 2.83-1.44 4.25-.26.79-.53 1.58-.81 2.39-.67 2.11-1.24 4.21-1.75 6.36h-2c-.05.44-.05.44-.33 2.65-.69 3.45-1.77 5.88-3.42 8.97-3.11 6-5.74 12.12-8.25 18.38h-2c-.06.78-.12 1.57-.19 2.38-.92 4.12-2.58 7.29-4.54 11.01-1.56 3.21-2.57 6.46-3.5 9.9-.25.56-.51 1.13-.77 1.71l-3 1c-.45.78-.91 1.57-1.38 2.38-2 3.23-3.07 4.21-6.62 5.62-7.95.6-15.82-.43-23.69-1.5-1.09-.14-2.19-.29-3.32-.43-2.66-.35-5.33-.71-7.99-1.07v14c2.08-.06 4.17-.12 6.31-.19 6.16-.18 6.16-.18 8.58 1.51 1.73 2.62 1.49 4.63 1.11 7.68-1.19 1.66-1.19 1.66-3 3-2.43.38-2.43.38-5.34.39l-3.31.03c-1.18-.01-2.35-.02-3.57-.02-.6 0-.6 0-3.66.01-2.56 0-5.12-.01-7.68-.02-3.92-.01-7.85 0-11.77.02-2.49 0-4.97-.01-7.45-.01-.59 0-.59 0-3.57.02-.55-.01-.55-.01-3.31-.03-.96 0-1.92-.01-2.91-.01-2.43-.38-2.43-.38-4.24-1.72-1.85-2.58-1.58-4.58-1.19-7.66 1.07-1.68 1.07-1.68 3-3 4.69-.41 9.28-.13 14 0v-18l-5.3.06c-6.04 0-11.97-.4-17.98-1.01-1.01-.1-2.03-.21-3.07-.31-2.12-.22-4.24-.43-6.36-.66-3.24-.33-6.49-.64-9.73-.95-2.07-.21-4.14-.43-6.21-.65-.97-.08-1.93-.17-2.93-.26-5.26-.59-8.61-1.22-12.42-5.22-1.5-2.19-1.5-2.19-2-5 1.14-5.33 3.43-10.22 6-15h2c.14-.36.14-.36.82-2.2 1.15-2.73 2.49-5.1 4.06-7.61 2.62-4.3 4.93-8.65 7.12-13.19h2c.23-.8.45-1.61.69-2.44 1.65-4.47 3.92-8.45 6.31-12.56h2l1-5h2l1-5h2l1-5h2l1-5h2v-3h2l.12-2.25c.88-2.75.88-2.75 3.44-5 5.55-2.82 14.68-4.63 20.44-1.75M107.125 64.813c.91-.01 1.82-.03 2.76-.04 7.05.52 13.11 2.84 19.43 5.85.74.36 1.48.71 2.25 1.07 9.92 4.87 17.89 11.49 25.94 19.01 1.99 1.83 4.01 3.55 6.12 5.23 4.8 4.05 8.53 9.14 12.38 14.07.6.69 1.2 1.37 1.82 2.08 1.18 1.92 1.18 1.92 1.09 3.93-1.14 2.47-2.52 3.92-4.48 5.8-.36.35-.36.35-2.21 2.14-1.92 1.77-3.87 3.48-5.85 5.17-4 3.43-7.67 7.14-11.37 10.88-4.27 4.31-8.55 8.5-13.2 12.4-2.85 2.53-5.39 5.36-7.95 8.19-1.85 1.41-1.85 1.41-3.79 1.25-2.75-1.12-3.47-2.45-5.02-4.97-.53-.86-1.06-1.73-1.61-2.62-.56-.93-1.11-1.86-1.69-2.82-.57-.94-1.14-1.89-1.74-2.86-4.13-6.88-7.88-13.88-11.32-21.13-1.68-3.44-1.68-3.44-3.71-6.84-2.27-3.92-3.67-7.99-5.04-12.29-.25-.79-.51-1.59-.77-2.4-.74-2.3-1.45-4.61-2.16-6.91-.35-1.11-.7-2.21-1.06-3.35-2.16-7.63-4.56-17.72-.67-25.06 3.63-4.33 6.18-5.74 11.85-5.78"/><path fill="#8da38f" d="M87 81h2c.16.98.32 1.96.48 2.97C91.13 93.71 93.62 102.7 97 112c.33 1.01.67 2.02 1.01 3.05C108.12 144 128.16 171.71 150 193c.6.64 1.19 1.28 1.81 1.95 10.13 10.67 21.9 17.95 35.19 24.05v2c-14.88 3.08-30.67 1.7-45-3-.97-.29-1.93-.58-2.93-.88C115.62 209.51 98.71 192.09 87 171c-.42-.71-.84-1.41-1.27-2.14-2.54-4.51-3.93-9.42-5.42-14.36-.21-.71-.43-1.43-.65-2.16C73.3 130.22 76.26 104.98 85 84z"/><path fill="#8da38f" d="M184 121c15.86 18.96 29.11 45.86 29.25 70.81l.06 2.66c.05 8.01-1.78 13.49-7.31 19.53-4.84 3.23-9.35 2.9-15 2-15.26-5.21-27.55-16.05-39-27l-2.51-2.39C138.91 176.32 138.91 176.32 136 171c.42-3.41 1.7-5.08 4.11-7.46.65-.66 1.31-1.32 1.98-2 .72-.7 1.43-1.4 2.16-2.12.74-.73 1.47-1.47 2.23-2.22 1.56-1.55 3.12-3.1 4.68-4.64 2.38-2.35 4.74-4.7 7.1-7.05l4.56-4.53c.7-.69 1.39-1.39 2.12-2.11 3.98-3.92 8.06-7.69 12.3-11.33 2.37-2.08 4.57-4.28 6.76-6.54"/><path fill="#212b30" d="M276 175c1.42.13 2.84.2 4.26.25.44.01.44.01 2.65.1 1.8.06 3.6.11 5.4.17 5.2.2 10.28.65 15.44 1.38 9.48 1.33 19 2.14 28.54 2.96 3.1.27 6.2.54 9.3.82 2 .17 4 .34 6 .52.91.08 1.82.16 2.76.24 4.94.42 9.8.63 14.76.54 2.56.03 4.82.53 7.27 1.27l2.46.7c2.66 1.29 3.7 2.49 5.16 5.05.88 5.23 0 10.12-2 15h-2c-.48 1.42-.96 2.83-1.44 4.25-.26.79-.53 1.58-.81 2.39-.67 2.11-1.24 4.21-1.75 6.36h-2c-.05.44-.05.44-.33 2.65-.69 3.45-1.77 5.88-3.42 8.97-3.11 6-5.74 12.12-8.25 18.38h-2c-.06.78-.12 1.57-.19 2.38-.92 4.12-2.58 7.29-4.54 11.01-1.56 3.21-2.57 6.46-3.5 9.9-.25.56-.51 1.13-.77 1.71l-3 1c-.45.78-.91 1.57-1.38 2.38-2 3.23-3.07 4.21-6.62 5.62-7.95.6-15.82-.43-23.69-1.5-1.09-.14-2.19-.29-3.32-.43-2.66-.35-5.33-.71-7.99-1.07v14c2.08-.06 4.17-.12 6.31-.19 6.16-.18 6.16-.18 8.58 1.51 1.73 2.62 1.49 4.63 1.11 7.68-1.19 1.66-1.19 1.66-3 3-2.43.38-2.43.38-5.34.39l-3.31.03c-1.18-.01-2.35-.02-3.57-.02-.6 0-.6 0-3.66.01-2.56 0-5.12-.01-7.68-.02-3.92-.01-7.85 0-11.77.02-2.49 0-4.97-.01-7.45-.01-.59 0-.59 0-3.57.02-.55-.01-.55-.01-3.31-.03-.96 0-1.92-.01-2.91-.01-2.43-.38-2.43-.38-4.24-1.72-1.85-2.58-1.58-4.58-1.19-7.66 1.07-1.68 1.07-1.68 3-3 4.69-.41 9.28-.13 14 0v-18l-5.3.06c-6.04 0-11.97-.4-17.98-1.01-1.01-.1-2.03-.21-3.07-.31-2.12-.22-4.24-.43-6.36-.66-3.24-.33-6.49-.64-9.73-.95-2.07-.21-4.14-.43-6.21-.65-.97-.08-1.93-.17-2.93-.26-5.26-.59-8.61-1.22-12.42-5.22-1.5-2.19-1.5-2.19-2-5 1.14-5.33 3.43-10.22 6-15h2c.14-.36.14-.36.82-2.2 1.15-2.73 2.49-5.1 4.06-7.61 2.62-4.3 4.93-8.65 7.12-13.19h2c.23-.8.45-1.61.69-2.44 1.65-4.47 3.92-8.45 6.31-12.56h2l1-5h2l1-5h2l1-5h2l1-5h2v-3h2l.12-2.25c.88-2.75.88-2.75 3.44-5 5.55-2.82 14.68-4.63 20.44-1.75m-19.95 9.38c-1.05 1.85-2.07 3.73-3.05 5.62-.97 1.61-1.95 3.21-2.93 4.8-.99 1.69-1.97 3.38-2.95 5.08-4.84 8.29-9.77 16.53-14.76 24.73-1.1 1.82-2.2 3.63-3.3 5.44-3.02 4.99-6.05 9.97-9.18 14.89-.21.34-.21.34-1.31 2.1-1.09 1.73-2.19 3.45-3.3 5.17-1.48 3.25-1.11 4.43-.27 7.79.76.08 1.53.15 2.32.23 8.99.9 17.99 1.81 26.98 2.72 2.38.24 4.75.48 7.13.71 15.65 1.58 31.3 3.16 46.93 4.95 1.05.12 2.1.24 3.18.37q7.17.825 14.34 1.68c1.67.2 3.35.4 5.02.59.73.09 1.46.18 2.21.28 4.48.51 8.48.47 12.89-.53 1.64-2.18 2.53-3.78 3.56-6.25.68-1.47 1.35-2.94 2.03-4.41.37-.83.75-1.67 1.13-2.54 1.98-4.33 4.09-8.6 6.18-12.88 6.13-12.56 12.07-25.21 17.92-37.91.51-1.09 1.02-2.19 1.54-3.32.44-.96.88-1.91 1.33-2.9.95-2.02 1.97-4 3.04-5.96C374 192 374 192 373 189a561 561 0 0 0-43.11-4.16c-13.92-.82-27.8-2.16-41.68-3.52-4.31-.42-8.63-.79-12.95-1.13-2.07-.17-4.14-.41-6.2-.66-6.19-.49-9.23-.35-13.01 4.85"/><path fill="#c57454" d="M284.063 196.188c.94.05 1.87.1 2.84.15 9.36.54 18.7 1.31 28.04 2.1.74.06 1.48.12 2.25.19 2.15.17 4.31.36 6.46.56 1.25.1 2.5.21 3.78.33 9.36 1.27 9.36 1.27 11.57 3.48-.31 6.97-1.98 11.97-5.15 18.12-.41.83-.83 1.66-1.25 2.51-.87 1.73-1.75 3.45-2.63 5.18-1.35 2.64-2.68 5.29-4 7.95-.85 1.68-1.71 3.37-2.56 5.05-.4.79-.79 1.59-1.2 2.4q-.57 1.095-1.14 2.22c-.17.32-.17.32-1 1.95-1.07 1.62-1.07 1.62-4.07 3.62-2.83.17-5.55.24-8.38.19h-2.29c-2.95-.03-5.71-.06-8.61-.65-3.44-.68-6.88-.97-10.37-1.26-.73-.06-1.45-.12-2.2-.19-2.32-.2-4.64-.39-6.97-.59-2.3-.19-4.61-.39-6.92-.59l-4.3-.36c-13.27-1.14-13.27-1.14-15.96-2.74-1.5-2.71-1.24-4.74-1-7.81 1.25-2.95 1.25-2.95 3-6.03.64-1.14 1.28-2.28 1.94-3.46.69-1.19 1.37-2.38 2.06-3.57.65-1.16 1.31-2.33 1.96-3.49 1.98-3.5 4-6.98 6.04-10.45.36-.61.71-1.22 1.08-1.84 1.07-1.81 2.15-3.61 3.23-5.4.64-1.06 1.27-2.12 1.93-3.21 3.77-5.46 7.81-4.72 13.82-4.36"/><path fill="#1d272b" d="M127 64c5.5.41 9.76 2.55 14 6v2h3v2c.58.11 1.15.21 1.75.32 2.57.78 4.18 1.87 6.31 3.49.67.5 1.35 1.01 2.04 1.52 1.97 1.73 3.34 3.57 4.9 5.67 1.65 1.03 3.32 2.03 5 3 1.81 1.56 1.81 1.56 3 3v2c.56.19 1.11.37 1.69.56 3.38 2.1 5.16 5.15 7.31 8.44.22-.59.44-1.18.66-1.79 2.69-6.69 5.35-10.06 11.78-13.52 4.38-1.18 8.27-1.12 12.56.31v2c.76.29 1.53.58 2.31.88C206 91 206 91 209 93v3h2c3.32 13.66 3.32 13.66 0 20-4.68 5.04-9.36 7.32-16 9 .48.96.97 1.92 1.47 2.9 21.25 42.14 21.25 42.14 20.53 56.1h2c.66 11.75.89 20.9-6 31-.38.63-.77 1.27-1.16 1.92-3.35 4.87-8.49 6.29-13.84 8.08-.99.39-1.98.78-3 1.19-3.51.95-6.91 1.28-10.54 1.56-2.46.25-2.46.25-4.86.77-3.09.57-6.02.61-9.16.6-1.12.01-2.23.01-3.38.01-2.58-.11-4.6-.45-7.06-1.13-2-.04-4-.05-6 0l2-3-3-1v2l-3-1 1-5c1.01.16 2.02.33 3.06.49 3.72.48 7.23.62 10.97.61 1.28-.01 2.57-.01 3.89-.01l4.02-.03c1.36 0 2.73-.01 4.09-.01 3.33-.01 6.65-.03 9.97-.05v-2c-.71-.1-1.42-.21-2.16-.32C170.98 215.35 157.5 202 148 192c-.81-.81-1.63-1.62-2.46-2.46-12.71-12.73-23.5-26.8-32.36-42.45-.84-1.48-1.68-2.96-2.54-4.44C104.33 131.72 99 120.98 95 109c-.42-1.18-.85-2.37-1.28-3.59C91.6 99.38 91.6 99.38 91 97c1.32-2.64 3.14-4.72 5-7 .31 1.27.63 2.53.95 3.84.88 3.47 1.78 6.94 2.7 10.4.22.8.43 1.6.65 2.42 1.19 3.99 2.83 7.63 4.7 11.34.53 1.19 1.06 2.38 1.61 3.61 6.18 13.84 13.88 26.85 22.39 39.39 4.69-.86 7.07-3.78 10.25-7.12 1.17-1.21 2.34-2.41 3.52-3.61.56-.57 1.12-1.15 1.7-1.74 1.75-1.75 3.57-3.38 5.47-4.97 4.56-3.87 8.69-8.17 12.9-12.42 3.77-3.8 7.61-7.45 11.71-10.91C176 119 176 119 178 117c-.16-4.78-2.54-7.09-5.75-10.44-5.65-5.96-5.65-5.96-7.87-8.81-3.16-3.65-6.68-6.67-10.38-9.75-.79-.66-1.58-1.33-2.39-2.01-4.21-3.47-8.3-6.45-13.11-9.05-4.33-2.46-4.33-2.46-5.81-6.69-.12-.54-.12-.54-.69-3.25-2.62-1.44-2.62-1.44-5-2zm54.78 59.16c-.95.97-1.9 1.93-2.84 2.9-3.04 3.1-6.07 6.08-9.37 8.89-6.13 5.31-11.86 11.04-17.62 16.75-1.35 1.34-2.71 2.67-4.07 3.99a812 812 0 0 0-5.92 5.82c-.61.59-1.22 1.19-1.86 1.79-1.68 1.69-1.68 1.69-4.1 4.7 1.44 11.8 20.11 26.02 28.96 33.18 10.33 8.07 21.74 15.43 35.16 15.2 4.46-.59 5.95-2 8.88-5.38 5.84-8.26 4.94-19.33 4-29-3.85-21.09-14.86-44.1-28-61-1 0-1 0-3.22 2.16"/><path fill="#1a2429" d="M276 175c1.42.13 2.84.2 4.26.25.44.01.44.01 2.65.1 1.8.06 3.6.11 5.4.17 5.2.2 10.28.65 15.44 1.38 9.48 1.33 19 2.14 28.54 2.96 3.1.27 6.2.54 9.3.82 2 .17 4 .34 6 .52.91.08 1.82.16 2.76.24 4.94.42 9.8.63 14.76.54 2.56.03 4.82.53 7.27 1.27l2.46.7c2.66 1.29 3.7 2.49 5.16 5.05.88 5.23 0 10.12-2 15h-2c-.48 1.42-.96 2.83-1.44 4.25-.26.79-.53 1.58-.81 2.39-.67 2.11-1.24 4.21-1.75 6.36h-2c-.05.44-.05.44-.33 2.65-.69 3.45-1.77 5.88-3.42 8.97-3.11 6-5.74 12.12-8.25 18.38h-2c-.06.78-.12 1.57-.19 2.38-.92 4.12-2.58 7.29-4.54 11.01-1.56 3.21-2.57 6.46-3.5 9.9-.25.56-.51 1.13-.77 1.71l-3 1c-1.05 1.64-2.05 3.3-3 5l-2 2-3-1v-3c.75-.75 1.51-1.49 2.28-2.26 3-3.02 4.41-5.66 6.18-9.51.31-.65.62-1.31.93-1.99 1.01-2.16 2-4.32 2.99-6.49.69-1.5 1.39-3.01 2.09-4.51 2.19-4.74 4.36-9.49 6.53-14.24.74-1.61 1.47-3.22 2.21-4.83 4.29-9.38 8.55-18.77 12.79-28.17-4.93 9.7-9.65 19.4-13.75 29.5-2.65 6.16-2.65 6.16-6.02 8.07-.37.07-.37.07-2.23.43 1.6-5.31 3.88-10.15 6.28-15.12.42-.87.83-1.74 1.26-2.63 1.76-3.68 3.53-7.36 5.3-11.04 1.3-2.69 2.59-5.39 3.88-8.09.4-.82.8-1.65 1.21-2.5 1.98-4.14 3.74-8.21 5.07-12.62a561 561 0 0 0-43.11-4.16c-13.92-.82-27.8-2.16-41.68-3.52-23.4-2.26-23.4-2.26-28.21-1.32-2.78 2.7-4.34 5.63-6.03 9.1-1.9 3.73-4.16 7.26-6.35 10.84-1.03 1.73-2.07 3.46-3.1 5.19-3.67 6.13-7.38 12.24-11.09 18.35-1.11 1.82-2.22 3.65-3.32 5.47-3.05 5.02-6.1 10.04-9.2 15.03-.43.7-.86 1.4-1.3 2.11-1.07 1.75-2.16 3.49-3.24 5.22C215 255 215 255 215 259c.85.08 1.7.17 2.57.25 8.02.79 16.04 1.58 24.06 2.38 4.12.42 8.24.82 12.36 1.23 3.98.39 7.96.78 11.95 1.18 1.51.16 3.03.31 4.54.45 2.13.21 4.26.42 6.39.64 1.21.12 2.42.24 3.67.36 3.65.54 6.94 1.42 10.46 2.51v3l-7.62-.69-6.87-.63c-20.88-1.89-41.71-4.05-62.51-6.68v2l3.56-.12c4.16-.02 7.5.81 11.44 2.12v2c-2.4.11-4.79.19-7.19.25-.67.03-1.34.07-2.04.1-3.64.07-5.58-.23-8.66-2.23-2.46-2.47-3.5-3.67-4.11-7.12 1.14-5.33 3.43-10.22 6-15h2c.14-.36.14-.36.82-2.2 1.15-2.73 2.49-5.1 4.06-7.61 2.62-4.3 4.93-8.65 7.12-13.19h2c.23-.8.45-1.61.69-2.44 1.65-4.47 3.92-8.45 6.31-12.56h2l1-5h2l1-5h2l1-5h2l1-5h2v-3h2l.12-2.25c.88-2.75.88-2.75 3.44-5 5.55-2.82 14.68-4.63 20.44-1.75"/><path fill="#32425a" d="M103 222c.09 1.23.17 2.45.26 3.71.32 4.58.64 9.16.97 13.74.14 1.98.27 3.95.41 5.93.2 2.85.4 5.7.61 8.55.06.88.12 1.75.18 2.65.39 5.49.93 10.95 1.57 16.42l3.32-.18c1.46-.04 2.91-.09 4.37-.13.72-.04 1.44-.09 2.18-.13 3.96-.09 5.64.08 8.91 2.51 2.46 3.24 4.3 6.45 6.03 10.12.16.31.16.31.95 1.9C135 291.7 135 291.7 135 294H63c.93-4.67 2.13-7.51 4.38-11.62.6-1.13 1.21-2.26 1.83-3.42C71 276 71 276 74 273c2.64-.17 2.64-.17 16-1l1-49c8-1 8-1 12-1"/><path fill="#c47555" d="M241.59 21.102c7.17 2.64 13.83 6.04 20.41 9.9.44.25.44.25 2.66 1.5 2.56 1.64 4.22 3.58 6.09 5.96 1.25 1.54 1.25 1.54 3.69 3.98 4.5 4.5 8.41 8.47 10.56 14.56l2 1c6.17 11.12 8.72 22.62 10.63 35.1.37 1.9.37 1.9 1.37 3.9.45 5.52-.2 11.13-3 16-1.98.82-1.98.82-4 1l-2-1v-2h-2v-3h2c-.84-11.09-.84-11.09-1.62-15.63-.38-2.37-.38-2.37.62-4.37h-2l1-5h-2c.17-.66.17-.66 1-4h-2l-1.44-4.69c-.26-.87-.53-1.74-.81-2.64-.75-2.67-.75-2.67-1.22-5.44-.09-.37-.09-.37-.53-2.23l-2-1c-.8-1.16-1.54-2.35-2.25-3.56-9.27-15.24-9.27-15.24-16.75-18.44v-2c-.59-.12-1.18-.24-1.79-.36-2.29-.67-3.65-1.51-5.58-2.89-5.98-3.87-14.45-7.75-21.63-7.75v-2c-.97.18-1.94.37-2.94.56-1.01.15-2.02.29-3.06.44l-1-1c-3.4-.24-6.78-.4-10.19-.52-5.6-.27-5.6-.27-7.81-2.48.25-2.56.25-2.56 1-5 9.06-4.53 25.3.25 34.59 3.1"/><path fill="#232a2e" d="M284.063 196.188c.94.05 1.87.1 2.84.15 9.36.54 18.7 1.31 28.04 2.1.74.06 1.48.12 2.25.19 2.15.17 4.31.36 6.46.56 1.25.1 2.5.21 3.78.33 9.36 1.27 9.36 1.27 11.57 3.48-.31 6.97-1.98 11.97-5.15 18.12-.41.83-.83 1.66-1.25 2.51-.87 1.73-1.75 3.45-2.63 5.18-1.35 2.64-2.68 5.29-4 7.95-.85 1.68-1.71 3.37-2.56 5.05-.4.79-.79 1.59-1.2 2.4q-.57 1.095-1.14 2.22c-.17.32-.17.32-1 1.95-1.07 1.62-1.07 1.62-4.07 3.62-2.83.17-5.55.24-8.38.19h-2.29c-2.95-.03-5.71-.06-8.61-.65-3.44-.68-6.88-.97-10.37-1.26-.73-.06-1.45-.12-2.2-.19-2.32-.2-4.64-.39-6.97-.59-2.3-.19-4.61-.39-6.92-.59l-4.3-.36c-13.27-1.14-13.27-1.14-15.96-2.74-1.5-2.71-1.24-4.74-1-7.81 1.25-2.95 1.25-2.95 3-6.03.64-1.14 1.28-2.28 1.94-3.46.69-1.19 1.37-2.38 2.06-3.57.65-1.16 1.31-2.33 1.96-3.49 1.98-3.5 4-6.98 6.04-10.45.36-.61.71-1.22 1.08-1.84 1.07-1.81 2.15-3.61 3.23-5.4.64-1.06 1.27-2.12 1.93-3.21 3.77-5.46 7.81-4.72 13.82-4.36m-11.06 7.81c-.94 1.53-1.83 3.1-2.67 4.69-.5.92-1 1.84-1.51 2.79-.52.98-1.04 1.95-1.57 2.96-3.88 7.23-7.81 14.36-12.14 21.32-1.11 2.24-1.11 2.24-1.11 6.24 14.98 2.13 29.94 3.69 45.03 4.78 4.99.37 9.98.8 14.97 1.22 4.68-7.07 8.47-14.54 12.27-22.11 1.11-2.22 2.24-4.43 3.37-6.64.71-1.41 1.42-2.82 2.13-4.24l1.03-1.99c2.31-4.67 2.31-4.67 1.2-8.02-3.97-.9-7.82-1.25-11.88-1.5-1.31-.08-2.63-.16-3.98-.25-1.38-.08-2.76-.16-4.14-.25-2.71-.16-5.42-.33-8.13-.5-.6-.03-.6-.03-3.63-.22-2.83-.24-5.47-.71-8.24-1.28-3.04-.22-6.08-.23-9.13-.25l-2.45-.06c-.78-.01-1.56-.01-2.37-.02-.7 0-1.41-.01-2.14-.02-2.55.47-3.3 1.34-4.91 3.35"/><path fill="#c47655" d="M247 50v2h3c2.82 2.52 5.24 5.27 7.62 8.19C260 63 260 63 263 65c1.81 2.88 3.18 5.99 4.62 9.06.41.82.82 1.65 1.24 2.49 2.65 5.58 3.78 10.28 4.14 16.45h2c.05 2.21.09 4.42.12 6.62.03 1.23.05 2.46.08 3.73-.2 3.59-.9 6.32-2.2 9.65-2.38.62-2.38.62-5 1l-2-2c.02-2.82.02-2.82.38-6.12.11-1.1.22-2.2.33-3.33.05-.42.05-.42.29-2.55h-2c.08-.91.17-1.81.25-2.75.04-4.84-1.73-9.08-3.37-13.58C261 81 261 81 261 78c-.33-.16-.33-.16-2-1-.98-1.58-1.91-3.19-2.81-4.81-2.33-3.98-4.37-6.54-8.19-9.19-.68-.78-1.36-1.57-2.06-2.38-10.12-9.04-23.73-11.61-36.89-12.41C207 48 207 48 206 47c-.19-2.44-.19-2.44 0-5 8.94-8.94 31.99 3.04 41 8"/><path fill="#253135" d="m372 202 1 2c-.73 2.07-.73 2.07-1.96 4.69-.47.99-.93 1.98-1.41 3.01-.26.54-.26.54-1.57 3.3l-1.61 3.43c-1.17 2.5-2.34 4.99-3.52 7.48-2.05 4.34-4.08 8.68-6.12 13.03-1.41 3.02-2.83 6.04-4.25 9.06-.34.72-.68 1.45-1.03 2.2-1.6 3.41-3.21 6.82-4.83 10.22-1.06 2.22-2.11 4.46-3.14 6.69-.42.89-.85 1.78-1.28 2.7l-1.06 2.27c-1.52 2.38-2.75 3.54-5.22 4.92-11.85 1.52-24.42-.88-36.19-2.31-1.97-.24-3.94-.47-5.91-.7-2.94-.34-5.88-.69-8.82-1.04a1721 1721 0 0 0-22.64-2.51c-16.16-1.7-32.3-3.58-48.44-5.44v-2c5.3-.08 10.36.17 15.63.8.35.05.35.05 2.13.26 1.5.17 2.99.35 4.49.54 12.11 1.46 24.21 2.83 36.38 3.72 6.22.47 12.26 1.47 18.37 2.68l-1-4c3.31.29 6.63.58 9.94.88.99.08 1.99.17 3.01.26 7.5.68 14.96 1.56 22.42 2.59 3.9.29 6.84.25 10.63-.73 1.91-2.64 1.91-2.64 3.35-6.12.27-.61.54-1.22.81-1.85.85-1.96 1.66-3.93 2.46-5.91.82-1.96 1.65-3.92 2.49-5.87.77-1.78 1.5-3.57 2.24-5.35 1.65-2.9 1.65-2.9 4.11-4.37 3.45-2.08 4.6-4.86 6.2-8.39.16-.34.16-.34.97-2.03 1.01-2.14 2-4.28 2.99-6.42.68-1.43 1.35-2.86 2.03-4.29 1.24-2.64 2.48-5.28 3.71-7.92 1.5-3.19 3.05-6.34 4.64-9.48"/><path fill="#2e3f53" d="m277 276 20 1c.17 2.97.17 2.97 1 18l15 1v4h-53l1-4h15z"/><path fill="#c57555" d="M210.715 62.77c1.06.01 2.13.03 3.22.04 1.06.01 2.12.02 3.22.02 2.85.17 2.85.17 5.85 1.17v2c.72.12 1.44.25 2.18.38 2.77.61 5.21 1.5 7.82 2.62v2c.53.23 1.07.45 1.62.69 9.45 5.22 13.17 13.8 16.25 23.87 1.37 5.5 1.42 10.81 1.13 16.44h-2v2c-2.32.25-2.32.25-5 0-1.82-2-1.82-2-3-4 .16-.33.16-.33 1-2 .05-7.03-.94-12.99-4.17-19.26-.83-1.74-.83-1.74-.83-3.74-.58-.23-1.16-.45-1.75-.69-2.25-1.31-2.25-1.31-4-3.68-4.57-5.33-10.44-7.06-17.25-7.63v-2l-3.94.06c-1.36.02-2.71.01-4.06-.06-1-1-1-1-1.19-3.44.27-3.69 1.24-4.48 4.9-4.79"/><path fill="#314254" d="M95 191c1.77 1.54 1.77 1.54 3.38 3.62 2.33 2.92 4.58 5.24 7.56 7.5 2.54 2.12 2.99 2.56 3.75 5.94-.85 3.63-2.02 5.35-4.69 7.94-4.28 2.57-9.14 2.7-14 2-3.98-2.07-6.62-4.21-9-8-.74-4.48-.55-8.68 1.19-12.88 3.54-4.15 6.14-6.86 11.81-6.12"/><path fill="#c47453" d="M199 93c3.16 1.61 5.19 2.97 7.38 5.75 1.33 4.8 1.08 8.85-.44 13.5-2.48 3.51-4.94 5.23-8.94 6.75-3.99.65-5.59.21-9.19-1.69-3.48-2.86-5.36-4.88-6.2-9.38-.35-4.66.23-7.32 3.27-10.93 4.25-4.44 8.13-4.73 14.12-4"/><path fill="#56686d" d="M214 263c5.3-.08 10.36.17 15.63.8.7.09 1.4.17 2.13.26 1.49.17 2.99.35 4.48.53q5.94.72 11.88 1.41c.79.09 1.57.18 2.37.27 5.85.67 11.7 1.22 17.57 1.67 7.41.57 14.78 1.38 22.15 2.29.93.11 1.85.23 2.8.34 4.63.57 9.27 1.16 13.91 1.75 27.4 3.47 27.4 3.47 33.08-.32-1.75 3.88-1.75 3.88-4 5-12.15.8-24.16-.85-36.19-2.31-1.97-.24-3.94-.47-5.91-.7-2.94-.34-5.88-.69-8.82-1.04a1721 1721 0 0 0-22.64-2.51c-16.16-1.7-32.3-3.58-48.44-5.44z"/><path fill="#2c3638" d="M301 274c5.94.5 5.94.5 36 3l-1 4c-8.03.22-15.74-.42-23.69-1.5-1.09-.14-2.19-.29-3.32-.43-2.66-.35-5.33-.71-7.99-1.07z"/><path fill="#293034" d="m198 86-1 3 2 2c-2.33 2.33-3.15 2.3-6.31 2.75-3.35.7-5.38 1.38-7.69 3.94-2.16 3.58-2.75 6.16-3 10.31h-1c-.14-.76-.29-1.53-.44-2.31C180 103 180 103 179 100c.56-2.04.56-2.04 1.44-4.19.28-.71.57-1.43.87-2.17.23-.54.45-1.08.69-1.64h2v-2h2l1-2c3.53-2.44 6.83-2.16 11-2"/><path fill="#162027" d="M71 110c3 0 3 0 6 1l-1 23-3 1-2-7h-1c-.03-2.06-.05-4.12-.06-6.19-.01-1.15-.03-2.29-.04-3.48.09-2.92.42-5.49 1.1-8.33"/><path fill="#3d4749" d="M77 109h1v33h-3c-.33.16-.33.16-2 1v-2h-2c-1.38-4.95-.89-9.75-.56-14.81.05-.89.1-1.77.16-2.68.12-2.17.26-4.34.4-6.51h1l1 15 1-6h1z"/><path fill="#303b3e" d="M151 220c.87.16 1.74.33 2.63.5 6.06.86 12.2.6 18.31.56 1.25 0 2.51-.01 3.8-.01 3.09-.01 6.17-.03 9.26-.05l2 7c-3.7-.89-7.35-1.95-11-3v-1l-13-1v2c-4.15 3.11-4.15 3.11-7.31 2.69-.56-.23-1.12-.46-1.69-.69l2-2-3-1v2l-3-1z"/><path fill="#2f3636" d="m285.105 245.121 2.98.15c.51.02.51.02 3.1.17 1.04.05 2.07.1 3.14.15 2.56.13 5.12.27 7.67.41v1l-5 1 1 3-29-2v-1h8v-2c3.09-1.03 4.9-1.05 8.11-.88"/><path fill="#5a6e73" d="M293 272c6.68-.26 13.13.18 19.75 1 21.8 2.63 21.8 2.63 27.25-1-1.75 3.88-1.75 3.88-4 5-9.64.76-19.24-.31-28.81-1.38-.58-.06-.58-.06-3.53-.38-.54-.06-.54-.06-3.3-.39-.99-.11-1.97-.23-2.98-.35C295 274 295 274 293 272"/><path fill="#283335" d="M288 177v1h12l1 3 3 2c-3.29-.14-6.58-.29-9.88-.44-.91-.04-1.83-.08-2.78-.12-6.14-.28-12.23-.76-18.34-1.44v-1l5-1v-1c3.41-.78 6.51-1.1 10-1"/><path fill="#192026" d="M256 243c8.21-.3 15.92.56 24 2l-3 1v2c-6.93.23-13.22-.58-20-2z"/><path fill="#0c141b" d="M127 215c.52.28 1.04.55 1.57.84 3.84 1.99 7.14 3.44 11.43 4.16.3.16.3.16 1.81 1 3.31 1.51 6.58 1.64 10.19 2l-1 2 2 1v-2h5l-1 3c-8.57.14-8.57.14-12-1v-2c-1.18-.1-2.35-.21-3.56-.31-5.7-.71-10.37-3.06-15.44-5.69z"/><path fill="#0e191f" d="M273 175c3.79.11 7.58.24 11.38.38l3.21.09c6.66.24 12.93.99 19.41 2.53l-1 2c-6.62.12-6.62.12-10-1-2.26-.07-4.49 0-6.75.06-2.25-.06-4.08-.51-6.25-1.06-1.42-.06-2.83-.09-4.25-.06L275 178v-2z"/><path fill="#303a3e" d="m110 58 2 7c-1.98.17-1.98.17-12 1v-7c3.38-1.04 6.48-1.08 10-1"/><path fill="#495c64" d="M289 270c.77.1 1.55.19 2.35.29 1.88.23 3.77.47 5.65.71-3.74 2.49-7.22 2.07-11.5 1.69-.35-.03-.35-.03-2.13-.16-2.12-.17-4.25-.35-6.37-.53-1.23-.1-2.45-.2-3.72-.3-2.76-.22-5.52-.45-8.28-.7v-1c.99-.17 1.98-.33 3-.5.28-.05.28-.05 1.69-.28 6.53-.62 12.83-.05 19.31.78"/><path fill="#121b20" d="M109.945 58.805c2.02.07 4.04.13 6.05.2 1.07 1.87 1.07 1.87 2 4l-1 2-12-1c1.63-4.87 1.63-4.87 4.95-5.2"/><path fill="#1e292d" d="M343 269h2c-1.12 4.85-2.13 7.78-6 11l-3-1c0-3 0-3 2.38-5.56.86-.81 1.73-1.61 2.62-2.44z"/></svg>